<svg xmlns="http://www.w3.org/2000/svg" viewBox="0 0 64 64"><g fill="#dedede"><path d="M52.8 26.3h-.1c-3.1 1.6-5.7.2-7.4-1.2s0 .8-.4 1.6-1.2 1.8-3.2 2.5h-.2.2c.4-.1 1.3-.3 2.5-.2 1.5 0 3.7.6 6 2.6s.1-.9.5-2c.4-1 1-2.4 2.1-3.3z"/><path d="M44.5 24.7s-1.1-1.6-2.4-1.6h-.2c-.5 0-1 .3-1.4.9 0 0-.4.4-1.3.4-.3 0-.5 0-.9-.1s-.1.5.1 1.2c.2.6.7 1.5 2.1 2.3.9.5 1.1.9 1.1 1.1 0 .2-.3.3-.3.3.3 0 1 0 2.2-1.2 1.1-1 1.3-1.8 1.3-2.4 0-.6-.3-1-.3-1z"/><path d="M42.1 22.3c.8.4 1.7 1 2.6 1.8.9 1 1.9 1.8 2.9 2.2.7.3 1.5.5 2.2.5h.3c1.5 0 2.4-.7 2.5-.7 0 0 0-.1-.1-.2-1.2-1.5-4.3-5.6-8.6-5.8-1.2 0-2.3.2-3.1.5-.1 0-.2 0-.3.1-.1 0-.3.1-.4.2-.1 0-.3.2-.4.2-.2.1-.3.2-.4.3 0 0-.1 0-.2.1-.7.7-.8 1.4-.8 1.4s.5-.8 1.6-1c.5 0 1 0 1.6.2.2 0 .4.1.6.2z"/><path d="M41.1 22.5s-.4-.2-.9-.2H39.9c-.5.1-1 .6-1.4 1.4s.3.2.7.3h.6c.1 0 .2-.1.3-.2.3-.3.6-.6.9-1.2z"/><path d="M39 23.3c0 .2.2.3.3.2 0 0 .1 0 .1-.1v-.2c0-.1-.1-.2-.2-.2 0 0-.1 0-.1.1v.2zM59.7 26.6c-.9-3.4-3.3-6.7-7.9-10.8-1.9-1.6-3.1-5-3.8-7.6-.7-2.8-1-5.2-1-5.3 0-.1-.2-2.9-.6-3-.3.1-.6 1.1-.9 3.2-.3 2.2-.2 4.5.3 6.8.4 2 1.2 4.1 2.2 6.1 2 4 4.9 7.5 7.2 10.1 3.9 2.6 4 6.9 3.7 12.6.5-2.2.9-4.5 1.1-6.7.2-2.1 0-3.8-.4-5.5z"/><path d="M52.7 23.5c-1-1.3-1.4-1.8-3.9-4.7-1.8-2.1-3.1-4.9-3.8-6.9-.8-2.1-1.1-3.8-1.1-3.8-.1-.7-.3-1.1-.4-1.2-.3.3-.3 2.3.2 6 .3 2 1.4 4 2.3 5.3 1 1.4 1.8 2.3 1.9 2.3 1.5.7 2.9 2.2 3.9 3.3 1.1 1.2 1.8 2.3 1.8 2.3 1-.3 1.4 0 1.4 0-1-1.3-1.6-2-2-2.6zM46.9 20s-3.2-3.6-3.5-4.6c-.4-1.2-.5-1.7-.7-1.7-.1 0-.2.3-.3.9 0 .6.2 3.1 1.2 4.2.3.4.6.6 1 .6 1.1.1 2.2.5 2.3.5zM55.6 44.9s-2.2-.4-4.9-1.2c-2.5-.8-5.9-2.1-8.3-4.1-1.1.9-2.3.5-2.3.5.8 1.7 1.6 2.7 2.6 3.5 1.1.8 2.6 1.5 4.8 2.5 1.7.8 2.9 1.4 3.1 2.1 0 .3 0 .6-.2.9s3.4-1.8 5-4.2z"/><path d="M58.9 39.1s-1.6 4.4-3 5.6.2 0 .5.4c.2.3.6.8.7 1.8.9-2.3 1.8-7.8 1.8-7.8z"/><path d="M55.8 45.3c-.5 2.8-2.6 5.7-5.8 7.9-.6.4-1.3.9-2.2 1.3l-1.2.6h-.2c-.4.2-.9.4-1.3.5 0 0-.2 0-.3.1-.5.2-.9.3-1.4.5h-.3c-.5.2-1.1.3-1.7.4h-.2c-1.3.3-2.8.5-4.4.6-2 .1-3.4 0-4.2-.2-.9-.2-1.2-.4-1.2-.4.4 1.2 1.1 2.1 2.1 2.8.8.5 1.8.9 3 1.1.7.1 1.5.2 2.1.2 1.1 0 1.8-.1 1.8-.1 2-.4 3.7-.9 5.2-1.6 1.7-.8 3.3-1.7 4.8-3 1.6-1.3 2.9-2.8 3.8-4.2.7-1.2 1.3-2.4 1.6-3.6.5-2 .1-3.4.1-3.4z"/><path d="M55.1 46.1s-1.2 1.4-3.3 2.9c-2 1.4-5.2 3.4-9.4 4.4-5.3 1.2-7 1-7 1s.3.6.9 1.2c.6.5 1.6 1.1 3.1 1.1 1.3 0 2.9-.3 4.5-.9 1.6-.6 3.3-1.3 4.8-2.3 1.6-1 3-2.2 4.1-3.3 1.2-1.3 2-2.7 2.4-4.1z"/><path d="M57 48c0-1-.3-1.7-.5-2.2 0 0 0-.1-.1-.2.2 1.3 0 2.6-.4 3.9-.1.5-.3.9-.5 1.3-.8 1.8-2.1 3.6-4 5.5-1 1-2.4 2-4 2.9-.3.2-.6.4-1 .5h-.2c-.3.1-.6.3-.9.4-3.2 1.4-6.8 2.2-9.6 1.9.9.7 1.9 1.2 3.1 1.5h.4c.2 0 .4 0 .5.1h1.9c1.8 0 3.1-.4 3.1-.4 3.4-.9 6.2-2.5 8.3-4.7 2.1-2.3 3.1-4.8 3.6-6.6.4-1.5.6-3 .5-4.3zM42.1 39.3c-1.6-1.5-3.1-3.2-3.1-5.4.1-1.8.8-3.3 1.7-4.1-.2-.9-.8-1.6-1.6-2.1-.7-.5-1.5-.9-2.6-1.1-2.3-.6-4.6-.4-5.3-.3-1.8.1-3.6.7-5.4 1.2-1.5.5-3 .9-4.3 1.1-8.2-.7-14.3-6.4-16.3-15.2-.3-1.5-.6-2.2-.8-2.2-.3 0-.5 1.1-.7 3.3v1.8c0 1.1.3 2.2.5 3.4.5 1.9 1.1 3.6 1.9 4.5.6 1.3 1.5 2.6 2.5 3.8l-.2-.2c.2.3.5.6.8.9-.1-.1-.2-.3-.4-.4.2.2.3.4.5.5l.5.5-.4-.4c1.3 1.4 2.9 2.8 4.8 3.9-.4-.2-.7-.4-1.1-.7.4.3.8.5 1.2.8 0 0 .1 0 .2.1 0 0-.1 0-.2-.1.3.2.7.4 1 .5-.3-.1-.5-.3-.8-.4 2 1.1 4.1 1.9 6.3 2.4 1.3.2 2.5.4 3.8.4 1.4 0 2.7-.1 4.1-.4 1.1-.3 2.2-.4 3.3-.2.3 0 .7.1 1 .2h-.4c.2 0 .3 0 .5.1 1.5.4 2.9 1.3 4.4 2.5 1 1 1.8 1.7 2.4 2 .2 0 .4.1.7.1h.4c.1 0 .2 0 .4-.1.1 0 .3-.1.5-.2z"/><path d="M38.7 39.1c-1.4-1.3-2.9-2.3-4.3-2.9-1.1-.5-2.3-.7-3.4-.8-1.9 0-3 .6-3 .6-1.5.6-3.1.8-4.8.8-3.6 0-7.7-1.2-11.8-3.7s-.5-.2-1.2-.8c-.6-.5-1.6-1.5-2.6-3-.4-.5-.7-.9-.9-.9h-.1s-.2 0-.2.2V28.9c0 .5.2 1.4.7 2.4.5 1.1 1.4 2.7 3.1 4.4 1.1 1.2 2.5 2.2 4.1 3.2.2 0 .3.2.5.3.4.2.7.4 1.1.6.3.2.7.3 1 .5.4.2.8.4 1.2.5.2 0 .3.1.5.2 2.6 1 5.2 1.5 6.5 1.5h2.2c.3 0 .7 0 1-.1.3 0 .7 0 1-.2h.6c.2 0 .5-.1.7-.2.3 0 .5-.1.8-.2.5-.1.9-.2 1.4-.4.3 0 .6-.2.8-.3.2 0 .4-.1.7-.2 2.5-.9 4.3-1.8 4.3-1.8z"/><path d="M39.2 39.7c-.3.1-.7.3-1.1.5-3.1 1.5-7.3 3.5-13.5 3.5s-1.9 0-2.9-.1h-.5c-1.6-.3-3-.6-4.9-1.5-.9-.5-1.4-.8-1.7-.7-.2.3.7 1.4.9 1.6.1.1.3.2.4.4.1 0 .2.2.3.3.2.1.3.3.5.4 0 0 .2.1.3.2.3.2.6.4 1 .6.1 0 .2.1.3.2.4.2.7.4 1.1.5 0 0 .2 0 .3.1.4.2.8.3 1.2.4h.3c.4.1.8.2 1.3.3h.3c.4 0 .8.2 1.3.2h.4c.5 0 1.1.1 1.7.2h2c1.5 0 3.2-.3 4.8-.8 2-.7 3.7-1.7 4.9-2.9.5-.6.9-1.1 1.2-1.7.3-.6.3-1.3.2-2z"/><path d="M40.8 42.1c-.3-1-.6-1.4-.9-1.7l-.1-.1s0 1-.6 2.2c-.6 1.2-1.9 2.8-4.7 4.1-1 .4-1.5.8-1.5 1v.1h.4c.9 0 3.1-.5 4.5-1.2 1.2-.6 2-1.3 2.5-2.2.4-.7.5-1.5.3-2.3zM32.7 23h.3c.6 0 1.1.1 1.7.2 1.2.2 2.4.6 3.5 1-.6-.7-.7-1-.7-1 .4.1.6-.4.6-.4-.2 0-.5-.1-.7-.2-.1 0-.3 0-.4-.1l-1.5-.3H35c-.5 0-1-.1-1.5-.2h-2.4c-.6 0-1.1 0-1.7.1-.7 0-1.4.2-2.1.3h-.2c-.7.1-1.3.3-2 .5h-.2c-.7.2-1.4.4-2.1.7h-.2c-.4.1-.7.3-1.1.4 3.5-.8 6.6-1.2 9.4-1.2h2z"/></g><path d="M50 32.1s-1-1-2.7-1.8c-.8-.4-1.9-.7-2.9-.8-1.2 0-2.3-.2-3.6.8C36.7 35.4 42 41.6 55 44.2c-1.4-.1-16.3-14.9-5-12.1zM50.4 31.9s.2-1.2.8-2.7c.6-1.5 1.8-3.1 3.5-2.8 2.5 1 5.1 5.2 3.7 12.9-.7 2.5-2.4 4.8-2.4 4.8.3 0-.4-22.5-5.6-12.2z" fill="#001ec8"/><path d="M50.5 32.7c-4.6-1.7-6.3 2.1 5.3 11.9-.2-5.4-1.2-20-5.3-11.9z" fill="#14127b"/></svg>