<svg xmlns="http://www.w3.org/2000/svg" viewBox="0 0 64 64"><g fill="#fff"><path d="M12 20.1c0 .8.6 1.4 1.4 1.4s1.4-.6 1.4-1.4-.6-1.4-1.4-1.4-1.4.6-1.4 1.4zM17.1 20.1c0 .8.6 1.4 1.4 1.4s1.4-.6 1.4-1.4-.6-1.4-1.4-1.4-1.4.6-1.4 1.4zM31.3 27.5c.2.2.4.3.7.3s.5 0 .7-.3L53.4 6.8c.4-.4.4-1 0-1.3-.4-.4-1-.4-1.3 0L31.3 26.2c-.4.4-.4 1 0 1.3zM62.4 10.6 52 21c-.4.4-.4 1 0 1.3.2.2.4.3.7.3s.5 0 .7-.3l10.4-10.4c.4-.4.4-1 0-1.3-.4-.4-1-.4-1.3 0zM52.1 17.1c.2.2.4.3.7.3s.5 0 .7-.3L63.9 6.7c.4-.4.4-1 0-1.3-.4-.4-1-.4-1.3 0L52.2 15.8c-.4.4-.4 1 0 1.3zM15.8 17.1c.2.2.4.3.7.3s.5 0 .7-.3L27.5 6.8c.4-.4.4-1 0-1.3-.4-.4-1-.4-1.3 0L15.8 15.8c-.4.4-.4 1 0 1.3zM21 17.1c.2.2.4.3.7.3s.5 0 .7-.3L32.8 6.7c.4-.4.4-1 0-1.3-.4-.4-1-.4-1.3 0L21.1 15.8c-.4.4-.4 1 0 1.3z"/><path d="M62.4 15.8 52 26.2c-.2.2-.3.4-.3.7v10.4c0 10.9-8.9 19.8-19.8 19.8s-19.8-8.9-19.8-19.8V26.9c0-.5-.4-.9-.9-.9h-8L22.3 6.8c.4-.4.4-1 0-1.3-.4-.4-1-.4-1.3 0L.3 26.2c-.3.3-.3.7-.2 1 .1.3.5.6.9.6h9.4v9.4c0 2.9.6 5.7 1.7 8.4 1.1 2.6 2.7 4.9 4.6 6.9 2 2 4.3 3.6 6.9 4.6 2.7 1.1 5.5 1.7 8.4 1.7s5.7-.6 8.4-1.7c2.6-1.1 4.9-2.7 6.9-4.6s3.6-4.3 4.6-6.9c1.1-2.7 1.7-5.5 1.7-8.4v-10l10.1-10.1c.4-.4.4-1 0-1.3-.4-.4-1-.4-1.3 0z"/></g></svg>