<svg xmlns="http://www.w3.org/2000/svg" viewBox="0 0 64 64"><path d="M16 32.5V18.6c0-.7-.2-.7 1.3-.7H64v14.6H16z" fill="#206e20"/><path d="M16 32.5h48v14.6H16V32.5z" fill="#247b24"/><path d="M63.9 4.1c-.4-1.1-1.4-1.8-2.5-1.9H18.8c-1.3 0-2.5.9-2.7 2.1v13.5h48V4.4c-.1 0 0-.2-.1-.3z" fill="#1c601c"/><path d="M40.5 47.1H16v12.5c.2 1.3 1.4 2.3 2.7 2.3h42.5c1.2 0 2.3-.8 2.7-2 0 0 0-.2.1-.2V47.2H40.5z" fill="#288928"/><path d="M37.3 16.2c0-.4 0-.8-.3-1.2-.5-1.2-1.6-1.9-2.9-1.9H3.2c-1.7 0-3.2 1.3-3.2 3.1v31.5c0 1.7 1.3 3.2 3 3.2h31.7c1.5-.2 2.6-1.5 2.6-3V16.2z" fill="#107c10"/><path d="M26.9 44h-2.8c-.2 0-.2-.2-.2-.3-.8-2.1-1.6-4.3-2.4-6.4l-2.2-5.8v-.2c-.1 0-.1.1-.2.2-1.9 4.1-3.7 8.2-5.6 12.2 0 .2-.3.3-.5.3h-2.7c.4-.9.8-1.8 1.2-2.6 2.1-4.6 4.1-9.1 6.2-13.7v-.5c-.4-.9-.7-1.9-1-2.8-.1-.3-.3-.7-.5-1-.4-.6-1.1-1-1.8-1h-1.2c-.2 0-.3 0-.3-.3v-1.9c0-.6 0-.2.2-.2 1 0 2.1 0 3.1.2 1.4.3 2.5 1.3 2.9 2.6 1.6 4.3 3.2 8.6 4.8 13l2.9 7.9c0 .1 0 .2.1.3z" fill="#fefefe"/></svg>