<svg xmlns="http://www.w3.org/2000/svg" viewBox="0 0 64 64"><g fill="#dd981a"><path d="M18.6 45.2c-1.9 2.9-3.2 6.2-3.8 9.7H21c-.8-3-1.1-6.1-1-9.2-.5-.1-1-.3-1.4-.5zM40.2 42.3c-1.2 2.9-2.2 5.8-2.9 8.9-.3 1.2.5 2.5.4 3.7h7.8c-2.1-5.8-2.5-14.3-3.6-17.7 0 0-1.7 5.2-1.7 5.1z"/><path d="M62.5 22.3c-1.8-2.6-5.8-4.8-6.8-7.7-.3-1-.2-2.1.2-3 .5-.7-.3-.5-.3-.5-1 .4-1.4-.7-1.4-.7-.2-.4 0-1.6-.8-1-1.6 1.2-1.1 4.1-.8 5.3.5 2 1.6 3.8 3 5.3.5.5 3.7 4.1 3.3 5.9 0 .6-.5 1.2-1.1 1.4-2.3.5-3.1-2.4-3.1-2.4-1.7-7.6-4.6-10.2-4.6-10.2-4.6-.2-9.1.2-13.6 1.2-10.4-.4-20.7 1.2-30.5 4.8-3.8 5.5-6 15.9-6 15.9v.1h.1c1.4-1.8 3.1-3.5 4.8-5-.4 7.9.6 15.7 2.8 23.3h6.1c.7-3.9 2.2-7.7 4.4-11 2.3 1.7 7.4 1.2 7.4 1.2.9 3.5 2.7 9.7 2.7 9.7h7.3c.6-4.8 2-9.4 4-13.8.8-1.8 1.4-3.6 1.9-5.5.1-1.7 1.6-2.9 3.3-2.8 1.1 0 6.1 2.9 9.9 2.7 6.5-.3 9.1-3.4 9.2-6.9.2-2.2-.4-4.3-1.5-6.2zm-21 7.5s0 .2-.1.3c0 .1-.2.2-.3.2h-.7c-.4-.2-.7-.4-1-.7l-.4-.4-.4-.4c-.2-.2-.5-.3-.7-.4-.3-.1-.6-.2-1-.3-.3 0-.7-.2-1-.3-.1 0-.2 0-.3-.1h-.1l-.2-.2c-.1-.1-.2-.2-.3-.4 0-.1-.1-.2-.1-.4V25.4c0-.4.2-.7.3-1.1.1-.3.2-.7.4-1 0-.2.1-.3.2-.5 0-.2.2-.3.3-.5.4-.6.9-1.2 1.5-1.7l.9-.6c.3-.2.7-.3 1-.4-.6.4-1.1.9-1.6 1.4-.5.5-.8 1.1-1.1 1.7 0 .1-.1.3-.2.5l-.2.5c-.1.3-.2.7-.3 1 0 .3-.2.7-.2 1v1.1h.3c.3.2.6.3 1 .4.4.1.7.2 1 .4.4.2.7.4 1 .7.1.1.2.3.3.5l.3.4c.1.1.2.3.3.4l.3.3s.2.1.3 0c.1 0 .2-.1.3-.3 0-.1.2-.3.2-.5s.1-.3.2-.5v1.1zm6.5-4.6c-.2.6-.8.9-1.4.7-.6-.2-.9-.8-.7-1.4.2-.6.8-.9 1.4-.7.1 0 .2 0 .3.1.5.3.7.8.4 1.3z"/></g></svg>