<svg xmlns="http://www.w3.org/2000/svg" viewBox="0 0 64 64"><path d="M30.7 32.6c-.3.7-.7 1.5-1 2.3-1.3 2.9-2.7 6.5-3.2 8.7-.2.8-.3 1.8-.3 2.9v1.4c1.8.7 3.8 1 5.8 1 1.9 0 3.7-.3 5.3-.9-.4-.4-.8-.7-1.1-1.2-2.3-2.9-3.5-7.1-5.5-14.3M22.3 18.2c-4.3 3.1-7.2 8.1-7.2 13.8 0 5.6 2.8 10.6 7 13.7 1-4.3 3.6-8.3 7.5-16.2-.2-.6-.5-1.3-.8-2.1-1.1-2.7-2.6-5.9-4-7.3-.7-.7-1.6-1.4-2.5-1.9" fill="#91dc47"/><path d="M46.7 51.4c-2.2-.3-4.1-.6-5.7-1.2-2.7 1.4-5.8 2.1-9 2.1-11.2 0-20.3-9.1-20.3-20.3 0-6.1 2.7-11.6 6.9-15.3-1.1-.3-2.3-.4-3.5-.4-6 0-12.3 3.4-14.9 12.3C0 29.9 0 30.8 0 32c0 17.7 14.3 32 32 32s20.4-5.4 26.2-13.6c-3.1.8-6.1 1.2-8.7 1.2-1 0-1.9 0-2.7-.2" fill="#63b132"/><path d="M40.7 45.2c.2 0 .6.3 1.3.4 4.2-3.1 6.9-8 6.9-13.6 0-9.3-7.6-16.9-16.9-16.9-1.9 0-3.6.3-5.3.9 3.4 3.9 5.1 9.5 6.7 15.6s.5 1.7 1.4 4c.9 2.2 2.1 5 3.4 7.1.9 1.4 1.9 2.3 2.5 2.6" fill="#90b4fe"/><path d="M32 0C21.3 0 11.8 5.3 6 13.4c3-1.9 6.1-2.6 8.8-2.6 3.7 0 6.6 1.2 8 2 .3.2.7.4 1 .6 2.5-1.1 5.3-1.7 8.2-1.7 11.2 0 20.3 9.1 20.3 20.3 0 5.7-2.3 10.8-6 14.5.9.1 1.9.2 2.9.2 3.5 0 7.4-.8 10.2-3.2 1.9-1.6 3.4-3.9 4.3-7.3.2-1.3.3-2.7.3-4.1C64 14.3 49.7 0 32 0" fill="#5881d8"/></svg>