<svg xmlns="http://www.w3.org/2000/svg" viewBox="0 0 64 64"><g fill="#6f4e37"><path d="M24.9 14.2c6.1-.5 7.8-4.4 14.9-5.1 3.5-.3 5.7.4 5.9 1.6.2 1.2-1.5 1.9-3.6 2.1-2.9.3-4.1-.8-4.4-1.7-2.2.2-2.5 1.2-2.4 1.8.2 1.2 2.9 2.4 7.3 2 5.1-.4 6.8-2.4 6.3-4.4-.5-2.6-4.4-4.8-11.4-4.1-9 .8-8.9 4.9-15 5.5-2.5.2-3.9-.3-4.1-1.3-.2-1 1-1.5 2.5-1.6 1.3-.1 3 .1 3.7.5.6-.3.8-.6.7-.9-.2-.9-2.1-1.3-4.4-1.2-4.5.4-4.5 2.4-4.4 3.3.5 2.3 4 3.9 8.3 3.5z"/><path d="M12.4 19.9c5.6 1.4 12.7 2.2 21.4 2.2s15.8-.8 21.4-2.2c5.9-1.4 8.8-3.3 8.8-5s-1.3-2.5-3.6-3.4c.5.3.9.9.9 1.6 0 1.8-2.7 3.3-8.1 4.5-5 1.1-11.4 1.9-19.2 1.9s-14.2-.8-19-1.8c-5.2-1.3-7.9-2.7-7.9-4.5s.3-1.4 1.4-2.2c-3.3 1.3-5 2.3-5 4 .2 1.8 3.1 3.6 9 5z"/><path d="M55.3 24.4c-5.6 1.3-12.7 2.2-21.4 2.2s-16-.9-21.5-2.2c-5-1.3-7.7-2.7-8.6-4.1.5 3.3 1.3 6.4 2.4 9.5-1.3.8-2.4 1.8-3.5 3.1-2 2.5-2.9 5.4-2.7 8.2.2 2.9 1.6 5.2 3.8 7 2.3 1.8 4.8 2.3 7.7 1.8 1.1-.2 2.3-.8 3.4-1.1-2.3 0-4.3-.8-6.3-2.3-2.2-1.6-3.6-3.8-4-6.5-.5-2.5 0-4.8 1.4-6.9.3-.4.6-.7 1-1.1.8 2 1.7 3.9 2.7 5.7 2.2 3.3 4.3 6.1 6.5 9.2.9 1.8 1.6 3.6 2 5.4 1.4 2 3.4 3.3 5.9 4 3.1 1.1 6.3 1.6 9.5 1.4h.3c3.3.2 6.7-.3 9.8-1.4 2.3-.8 4.3-2 5.8-4h.2c.3-1.8.9-3.6 1.8-5.4 2.2-3.1 4.3-5.9 6.5-9.2 2.9-5.2 4.8-11.1 5.9-17.5-1.2 1.6-3.8 3-8.7 4.1z"/></g></svg>