<svg xmlns="http://www.w3.org/2000/svg" viewBox="0 0 64 64"><path d="M59.7 48c.4-.8.7-1.6.7-2.4V18.4c0-.8-.3-1.7-.7-2.4L32 32l27.7 16z" fill="#00599c"/><path d="M34.5 63.4 58 49.8c.7-.4 1.3-1.1 1.7-1.8L32 32 4.3 48c.4.8 1.1 1.4 1.7 1.8l23.5 13.6c1.4.8 3.6.8 4.9 0z" fill="#004482"/><path d="M59.7 16c-.4-.8-1.1-1.4-1.7-1.8L34.5.6c-1.4-.8-3.6-.8-4.9 0L6 14.2c-1.4.8-2.5 2.7-2.5 4.3v27.1c0 .8.3 1.7.7 2.4l27.7-16 27.8-16z" fill="#659ad2"/><path d="M32 51c-10.5 0-19-8.5-19-19s8.5-19 19-19 13 3.6 16.4 9.5l-8.2 4.7c-1.7-2.9-4.8-4.7-8.2-4.7-5.2 0-9.5 4.3-9.5 9.5s4.3 9.5 9.5 9.5 6.5-1.8 8.2-4.7l8.2 4.7C45 47.3 38.7 51 32 51z" fill="#fff"/><path fill="#fff" d="M51 30.9h-2.1v-2.1h-2.2v2.1h-2.1v2.2h2.1v2.1h2.2v-2.1H51v-2.2zM58.9 30.9h-2.2v-2.1h-2.1v2.1h-2.1v2.2h2.1v2.1h2.1v-2.1h2.2v-2.2z"/></svg>