<svg xmlns="http://www.w3.org/2000/svg" viewBox="0 0 64 64"><g fill="#a40000"><path d="M47.5 14.7c-3 0-5.7 1.1-7.8 2.9-1.7-1.4-3.7-2.6-6-3.6-4.1-1.7-9.4-2.5-16.1-2.5H1.4c-.8.1-1.4.7-1.4 1.5v39.6l.1.1v.1h.1v.1s.2.1.2.2h15.7c4.3 0 7.1-.1 8.8-.4 1.6-.2 3.3-.6 5.2-1.2 3.3-1 6.1-2.5 8.6-4.5 2.4-1.9 4.3-4.2 5.6-6.8.9-1.7 1.4-3.4 1.7-5.3h.7c6.2 0 11.3-4.7 11.3-10.4s-5.1-10.4-11.3-10.4zM32.3 41.8c-.9.8-2 1.4-3.1 2-1.1.5-2.5.9-4.3 1.3-1.7.3-4.3.5-7.6.5h-7.1V19.5h6.9c3.2 0 5.5 0 6.8.3 1.3.2 2.8.6 4.3 1.2s2.9 1.3 4 2.2c3.1 2.4 4.6 5.3 4.6 9.1 0 3.9-1.4 7-4.5 9.5zM60.4 10.4c-2 0-3.6 1.5-3.6 3.3 0 1.8 1.6 3.3 3.6 3.3s3.6-1.5 3.6-3.3c0-1.8-1.6-3.3-3.6-3.3z"/></g></svg>