<svg xmlns="http://www.w3.org/2000/svg" viewBox="0 0 64 64"><defs><radialGradient id="a" cx="32" cy="-81.5" fx="32" fy="-81.5" r="32" gradientTransform="translate(0 113.5)" gradientUnits="userSpaceOnUse"><stop offset="0" stop-color="#fff" stop-opacity=".1"/><stop offset="1" stop-color="#fff" stop-opacity="0"/></radialGradient></defs><path d="M13 50.9 2.1 40C.8 38.7 0 36.8 0 34.9s.5-2.2.8-2.9l10.1-21L13 51z" fill="#01579b"/><path d="m50.5 13.1-10.9-11c-1-.9-3-2.1-4.7-2.1s-2.9.3-3.8.8L10.9 11l39.6 2.1zM26.1 64h26.5V52.6l-19.8-6.3-18.1 6.3L26.1 64z" fill="#40c4ff"/><path d="M10.9 45c0 3.4.4 4.2 2.1 5.9l1.7 1.7h37.9l-18.5-21L10.9 11v34z" fill="#29b6f6"/><path d="M44.6 11H10.9l41.7 41.6H64V26.5L50.5 13c-1.9-1.9-3.6-2.1-5.9-2.1z" fill="#01579b"/><path d="M13.5 51.4c-1.7-1.7-2.1-3.4-2.1-6.3V11.4L11 11v34c0 3 0 3.8 2.5 6.3l1.3 1.3-1.3-1.3z" fill="#fff" opacity=".2"/><path fill="#263238" opacity=".2" d="M63.6 26.1v26.1H52.2l.4.4H64V26.5l-.4-.4z"/><path d="M50.5 13.1C48.4 11 46.7 11 44.2 11H10.9l.4.4h32.9c1.3 0 4.4-.2 6.3 1.7z" fill="#fff" opacity=".2"/><path d="m63.6 26.1-13-13-11-11c-1-.9-3-2.1-4.7-2.1s-2.9.3-3.8.8L10.9 11 .8 32c-.3.8-.8 2.1-.8 2.9 0 1.8.8 3.7 2.1 5.1l10.1 10c.2.3.5.6.9.9l.4.4 1.3 1.3 10.9 10.9.4.4h26.5V52.5H64v-26l-.4-.4z" fill="url(#a)" opacity=".2"/></svg>