<svg xmlns="http://www.w3.org/2000/svg" viewBox="0 0 64 64"><g fill="#4d6977"><path d="m-187.2-238.3 2.8 11.2 4.6-14.6-7.4 3.4zM-195.7-251.1c-4.2 1-10.2 2.4-14.8 3.2l3.7 4.4 11.1-7.6zM-207.1-212.3l14.1 8.8-3.5-13.9-10.6 5.1zM-205.5-242l5.3 6.5 6.1-14.4-11.4 7.9zM-215.4-223.9l12.3-8.9-17 1.6 4.7 7.3zM-202.7-196.7l9.7-4.9-14.2-8.9 4.5 13.8zM-216.9-222.9l-4.7-7.3-10.7 18.3 15.4-11zM-197-219.2l-3.1-11.9-7.1 16.8 10.2-4.9zM-198.4-232l3 12.1 9-4.3-12-7.8zM-201.9-231.4l-12.5 8.9 5.2 8.1.2-.3v.1l7.1-16.8zM-186-225.9l-2.9-11.7-9.1 4 12 7.7zM-207-240.9l-11.4 8 16.7-1.6-5.3-6.4zM-215.9-221.4l-15.7 11.3 21.1-3-5.4-8.3zM-208.2-242.2l-3.7-4.5-6.9 11.9 10.6-7.4zM-187.6-240.1l7.6-3.4-10.4-7.3 2.8 10.7zM-191.4-204.4l5.6-18.2-9.2 4.4 3.6 13.8zM-198.2-235.5l8.8-3.9-2.6-10.7-6.2 14.6zM-201.1-191.9h5.9l2.4-7.9-9.3 4.8 1 3.1zM-224-191.9l-3.8-5.4-7.3 5.4h11.1zM-227.5-199.9l15.3-11.3-21.2 2.9 5.9 8.4zM-203-191.9l-.8-2.3-4.4 2.3h5.2zM-243.8-191.9h5.7l9.2-6.9-6-8.5-8.9 15.4zM-221.9-191.9h3.2l7.8-18.1-15.5 11.6 4.5 6.5zM-216.4-191.9h4.3l7.8-4.1-4.7-14.1-7.4 18.2z"/></g></svg>