<svg xmlns="http://www.w3.org/2000/svg" viewBox="0 0 64 64"><defs><linearGradient id="a" x1="-91.9" y1="-145.7" x2="-99.1" y2="149.9" gradientTransform="matrix(.1 0 0 .2 44.5 34)" gradientUnits="userSpaceOnUse"><stop offset="0" stop-color="#d9d8dc"/><stop offset="1" stop-color="#fff" stop-opacity=".4"/></linearGradient><linearGradient id="b" x1="-124.4" y1="-130.4" x2="-183.4" y2="126.5" gradientTransform="matrix(.1 0 0 .2 45.2 33.3)" gradientUnits="userSpaceOnUse"><stop offset="0" stop-color="#8d67af" stop-opacity=".7"/><stop offset="1" stop-color="#9f8daf"/></linearGradient><linearGradient id="c" x1="-82" y1="-59.3" x2="-82" y2="134" gradientTransform="matrix(.1 0 0 .2 44.8 33.8)" gradientUnits="userSpaceOnUse"><stop offset="0" stop-color="#26053d" stop-opacity=".8"/><stop offset="1" stop-color="#b7b4b4" stop-opacity=".3"/></linearGradient><linearGradient id="d" x1="-125.3" y1="-90.2" x2="-35.9" y2="89.8" gradientTransform="matrix(.2 0 0 .1 42.5 35.2)" gradientUnits="userSpaceOnUse"><stop offset="0" stop-color="#91739f" stop-opacity=".5"/><stop offset="1" stop-color="#32054f" stop-opacity=".5"/></linearGradient><linearGradient id="e" x1="-7.5" y1="129.4" x2="-166.5" y2="-40.4" gradientTransform="matrix(.1 0 0 .2 44.1 34.5)" gradientUnits="userSpaceOnUse"><stop offset="0" stop-color="#463d49" stop-opacity=".3"/><stop offset="1" stop-color="#340a50" stop-opacity=".8"/></linearGradient><linearGradient id="f" x1="-81.5" y1="-50.4" x2="-128.9" y2="115.8" gradientTransform="matrix(.1 0 0 .2 45.3 33.3)" gradientUnits="userSpaceOnUse"><stop offset="0" stop-color="#715383" stop-opacity=".2"/><stop offset="1" stop-color="#f4f4f4" stop-opacity=".2"/></linearGradient><linearGradient id="g" x1="-72" y1="-14.2" x2="-223.1" y2="-42.6" gradientTransform="matrix(0 0 0 .3 46 32.5)" gradientUnits="userSpaceOnUse"><stop offset="0" stop-color="#a5a1a8" stop-opacity=".4"/><stop offset="1" stop-color="#370c50" stop-opacity=".6"/></linearGradient></defs><g fill-rule="evenodd"><path d="M33.8.2c-4.6 1.6-9.1 6.5-13.5 14.4C13.8 26.6 5.4 43.5 17 57c5.3 6.2 14.2 10 25.7 4 9.3-4.7 11.9-18 8.5-24.4-6.9-13-13.9-16.2-15.7-24.3-1.1-4-1.6-8.1-1.7-12.2z" fill="url(#a)"/><path d="M33.8 0c-4.7 1.7-9.2 6.5-13.5 14.4-6.5 12-14.9 28.9-3.3 42.4 5.3 6.2 14 8.2 18.9 4.5 3.3-2.2 5.7-5.6 6.5-9.5 1-5.3.8-10.7-.4-16-.9-4.5-1.2-9.2-.9-13.8l-.2-.3c-2.5-2.7-4.3-5.9-5.3-9.5-1.2-4-1.7-8.1-1.8-12.2z" fill="url(#b)"/><path d="M30 2.1c-4.4 3.4-7.7 9.2-9.8 17.3-3.2 12.2-3.5 23.4-2.4 29.9C20 62 31.2 66.7 42.8 60.8c7.1-3.6 10-11.4 10-19.8s-17-18.6-20-25.9C31 11 30 6.6 30 2.1z" fill="url(#c)"/><path d="M40.9 24.9c5.2 6.7 6.4 11.3 3.4 14-4.4 4-15.2 6.5-22 1.7-4.4-3.2-6.1-10-5-20.5-1.8 3.8-3.4 7.8-4.7 11.8-1.3 4-1.7 8.3-1.1 12.4 1.6 3.2 5.5 5.4 11.7 6.5 9.3 1.6 18 .8 24-2.1 4-2 5.8-4 5.6-6 0-3-.9-5.9-2.8-8.3-2.7-3.5-5.7-6.7-9.1-9.6z" fill="url(#d)"/><path d="M20.5 18.2c0 4.9 1.3 9.6 3.7 13.8C28 39 33 45.2 39.1 50.3c4.4 3.6 8 4.7 10.6 3.5-2.2 3.9-4.5 5.8-6.9 5.7-3.7-.1-8.1-1.7-15.3-10.3-4.2-4.8-7.5-10.3-9.8-16.3l.9-6c.5-2.9 1.2-5.8 2-8.7z" fill="url(#e)"/><path d="M31.7 24.8c.4 4 2 10.2 0 14.4S20.8 51 23.3 57.6c2.5 6.7 8.5 5.2 12.3 2 3.4-3 5.6-7.1 6.2-11.6.4-3.5-1.1-10.3-1.6-16.2-.4-3.3-.1-6.7.7-10l-1.2-1.5-6.8-2c-1.2 1.9-1.6 4.1-1.2 6.3z" fill="url(#f)"/><path d="M34.2 5.3c-2.5 1.2-4.7 3.2-6.2 5.5-3 4.1-4.5 6.6-3.3 14.8.7 5.5 1.3 10.5 1.6 15.1L35.8 13c-.4-1.4-.7-2.7-.9-3.8s-.5-2.4-.6-3.9z" fill="url(#g)"/><path d="M35.7 13c-2.5 1.4-4.4 4.3-5.7 8.7-1.6 6-2.8 12.1-3.6 18.3 1.5-5 2.5-8.6 2.9-10.9.7-3.4 1-8.1 2.9-11.4 1-1.7 2.1-3.3 3.5-4.8z" fill="rgba(51,10,76,.3)"/><path d="M24.5 60c4 .6 6 1.1 6.2 1.5s-.5 1.3-2.7.9c-1.5-.3-2.7-1.1-3.5-2.4z" fill="#fff"/><path d="M26.5 5.3c-2.2 2.6-4.1 5.4-5.7 8.3-1.6 2.9-2.8 5.1-3.4 6.6-.3 1.6-.4 3.2-.3 4.8 0 2.3.2 4.7.5 7 .3-5 1.3-9.9 2.9-14.7 1.4-4.3 3.4-8.3 6-12z" fill="rgba(237,237,237,.6)"/></g></svg>