<svg xmlns="http://www.w3.org/2000/svg" viewBox="0 0 64 64"><path d="M9.4 64C5.6 64 0 57.4 0 54.5V9.3C0 5.5 6.6 0 9.5 0h45.3C58.7 0 64 6.4 64 9.4v45.3c0 4.5-6 9.3-9.3 9.3H9.4z" fill="#734f96"/><path d="m8.7 51.6 2.5-.2c5-.3 4.9-.3 5.2-4.2.2-3.7 0-32.8-.2-33.4-.3-1-1.3-1.5-4.4-1.5h-3V6.9h46.5v20.9h-5.5c0-.1-.2-1.6-.3-3-.6-6.4-2-10-4.8-11.5-1.5-.8-3.7-1-11-1h-6.8v15.6h1.2c2 0 4.6-.5 5.5-1 1.1-.7 2-2.6 2.4-5 .2-1.7.4-3 .4-3h5.3v24.8h-5.5v-1c0-1.6-.8-5.3-1.3-6.5-.8-1.7-2.2-2.3-6.2-2.7l-1.8-.2v8.1c.2 7.7.2 8.1.7 8.7.6.8 1.3 1 5.2 1.3h2.7V57H8.7v-5.5z" fill="#fff"/></svg>