<svg xmlns="http://www.w3.org/2000/svg" viewBox="0 0 64 64"><path d="M51.8 47.9 32 40.2l-19.8 7.7L20 35.7 0 28.2h24.6L32 16l7.4 12.3H64l-20 7.4 7.8 12.2"/><path d="M49.1 45.7 32 39.1l-17.1 6.6 6.7-10.6-17.2-6.4h21.2L32 18.2l6.4 10.6h21.3l-17.3 6.4 6.7 10.6" fill="#619cbc"/><path d="M52.8 33c-.2-.7-.4-1.5-.5-2.2-.1-.6-.2-1.2-.4-1.8v-.3c0-.2 0-.4-.1-.5 0-.5-.3-.9-.6-1.1-.1 0-.3-.2-.4-.2h-1.1c-.5 0-1 .2-1.3.6-.1.2-.2.4-.2.6-.1-.2-.3-.4-.4-.6-.3-.4-.8-.6-1.3-.5h-.3s-.2 0-.3.1c-.2.1-.3.3-.4.5-.7-.5-1.4-.8-2.2-.8s-.8.1-1.1.3c-.2-.1-.5-.2-.8-.2-.4 0-.8.2-1.1.5 0 0 0 .1-.1.2-.8-.7-1.9-1.1-2.9-1.1s-1.7.3-2.5 1.5c-.6-.8-1.4-1.3-2.4-1.3h-.7c-1.1 0-2 .9-2.5 1.6-.2-.6-.8-1-1.4-1-.4 0-.7.1-.9.3 0 0-.1 0-.2-.1-.6-.4-1.4-.3-1.9.3-.2-.3-.6-.5-.9-.5-.5 0-1 .1-1.3.6l-.4.6c0-.2-.1-.5-.1-.7 0-.4-.2-.8-.5-1.1l-.1-.1c.3-1.5.5-3.3-.2-4.5-.4-.7-1.1-1-1.9-1s-2.2.3-4.7 3.3c-1.2 1.4-2.5 3.3-3 4.3-.8 1.8-.8 3.4 0 4.7.4.6.9 1.1 1.6 1.4-.1 0-.3 0-.4.1-.5.2-.8.6-.9 1.1 0 .5 0 1 .5 1.4.6.5 1.1 1.2 1.5 2.2.2.4.4.6.8.8h.5c.2 0 .4 0 .6-.1.5-.2 1.2-.4 1.9-.6 2-.5 4.6-1.2 5.7-3.6 0-.2.1-.4.2-.5 0 .1 0 .2.1.4.7 1.5 1.8 1.8 2.5 1.8s1.6-.2 2.2-.6c.4-.2.6-.7.7-1.1.6.5 1.3.8 2.1.8 1.4 0 2.6-.7 3.6-1.8.8.9 2 1.5 3.4 1.5s2.6-.7 3.3-1.9c.1.5.3.9.5 1.4.8 1.7 2.1 2.1 3 2.1-.1.2-.2.5-.2.8 0 .4 0 .7-.1 1-.1.2-.2.4-.6.6-.3.2-.6.6-.6.9 0 .4 0 .8.3 1.1.3.5.9.7 1.6.7s1.6-.2 2.6-.5c.3.1.6.2.9.2 1.9 0 3.7-1.5 4.5-2.9 0 0 .1-.2.1-.3.1-.2.2-.5.3-.8 0-.3.1-.6.2-.8 0-.6.1-1.1 0-1.6 0-1.3-.4-2.4-.6-3.3zm-32.6 1.6c-.6 1.2-2.2 1.6-3.8 2-.4 0-.7.2-1.1.3 0 0 0-.1-.1-.2 1.7-.5 3.8-1.3 5.1-2.5v.4zm7.2-3v.2h-.1l.1-.1zm17 3.1s-.2-.1-.3-.4h.5c0 .1 0 .2-.1.3zm1.9 2.2c.1-.1.3-.3.4-.5 0 .1.1.3.2.4h-.6zm2.6-6.8c.2.4.3.8.4 1.2-.1-.4-.3-.8-.4-1.2zm.5 5.4c0-.2-.1-.4-.1-.6h.3c0 .2 0 .4-.1.6z"/><g fill="#fff"><path d="M19.9 27.7c0 .8-.3 1.6-.7 2.4-.6 1.4-2 2.9-3.6 2.9-2.4 0-3.2-2.8-2.1-5 .6-1.3 3.4-5.2 5.1-5.2s.2 4.6-.4 5.7c-.2.5-.9 1.4-1.5 1.4s-.9-1.2-.6-1.9c.2-.4.6-.8.8-1.2.3-.6-.4-1-.2-1.7-.8.6-1.3 1.5-1.7 2.2-.7 1.4-.7 3.3 1 3.3s2.6-1.6 3.1-2.7c.6-1.3 1.6-5.6-.1-5.6s-5.7 5.2-6.4 6.7c-1.2 2.6-.1 4.5 2.5 4.5s3.7-1.4 4.5-3.2c.1-.3.3-.6.3-.9.5.5.8 2 .3 2.8-1 2.1-5.5 3.1-7.4 3.8.8.7 1.4 1.7 1.9 2.7 2.1-.9 5.7-.9 6.9-3.5.9-2-1.3-5.5-1.3-7.6H20zM26.6 29.4c-.8 0-.6-.6-1-.9-.2.3-1.1 1.7-1.6 1.7s-.5-1.4-.6-1.7l-.8 1c2.1 1.1.8 6.4 3.1 6.4s1-.1 1.5-.4c-.2-.8-.2-1.5 0-2.4-.5.2-1.1.6-1.6.6-.9 0-1.9-2.4-1.5-3.2 0-.2.3-.2.5-.2s.8.6 1.3.6 1.3-.8 1.6-1.3c.2-.4.2-.7.1-1-.4 0-.6.8-.9.8zM32.1 28.1h-.7c-.7 0-1.6 1.2-1.8 1.7-.9 2-1.2 5.3 1.2 5.3s2.4-.9 3-2.2c.8-1.6 0-4.7-1.6-4.7zm1.6 3.1c-.4.8-1.3 1.6-2.2 1.6-1.5 0-2.1-1.9-1.4-3.4.2-.4.5-.8.9-1.1-.7 1-.7 2.5.5 2.5s.7-.2.8-.5c.2-.4-1.1-1-.9-1.5.1-.3.4-.4.6-.4 1 0 2.1 1.8 1.7 2.8zM37 27.8c-.8 0-1.3.7-1.6 1.4-1.3 2.8-.7 5.5 2.3 5.5s1.8-.5 2.2-1.5c1.1-2.4-.5-5.4-2.9-5.4zm2.8 3.3c-.4.8-1.2 1.1-1.9 1.1-1.6 0-2.8-1.7-2-3.4.1-.3.3-.6.6-.8-.8.9 0 2.2.8 2.2s.5-.2.7-.3c0-.5-1.3-1-1-1.4.1-.2.3-.3.5-.3 1 0 2.8 1.9 2.3 2.9zM45.8 35.3c1.2-2.4-.2-7.2-2.7-7.2s-.4 0-.5.3c-.4.8.3 1.8 1 1.9.6-1.4 0-.9 0-1.7h.2c1.2 0 2.3 2.2 1.7 3.5-.2.5-.6 1-1.2 1-2.4 0-1.8-3.5-3-4.8-.1.2-.3.3-.4.5 1.7 1.7.9 7.5 3.9 7.5s1-.5 1.2-.9z"/><path d="M51.5 33.4c-.4-1.3-.6-2.7-.9-4.1 0-.3-.2-.7-.2-1h-.8c.6 1.1 1.8 3 1.1 4.6-.2.4-.6.8-1 .8-1.7 0-1.8-3.9-3-5.3 0 .2-.2.4-.3.6 2 1.7.7 8.7 3.2 8.7s.9-.5 1.2-1c.5-1 .5-2.3.5-3.2v.5c.2.4.2.7.3 1.1 0 .7.1 1.6-.3 2.5-1.6 3-4.7 1.3-5.3 1.3s-.5-.2-.6-.2c0 .5 0 1.1-.3 1.7-.2.5-.6.9-1.1 1.2 0 .1.2.1.4.1 1.3 0 5.4 1 7.4-2.7 0-.2.2-.4.2-.5.5-1.8 0-3.5-.3-4.9z"/></g></svg>