<svg xmlns="http://www.w3.org/2000/svg" viewBox="0 0 64 64"><path d="M25.5 54.1c3.9-1.5 12.6-2.2 17-1.5-.8-13.5-1-21.5-.2-31.6 0-.8.1-1.6.2-2.4-1 1.9-16.4 34.2-17 35.5z" fill="#09397f"/><path d="M42.6 8.4c-3.5 9.3-4.6 23.9-6 39.4-4.8-.4-12.7.6-18.7 3.1.4-.7 21.9-37.7 24.7-42.5z" fill="#095fa8"/><path d="M33.2 36c-6.4-1.8-13.4 1.8-19.7 5.8C17.9 35.1 30.9 15.2 42.2 0c-8.5 11.9-9 30.8-9 36zM17.6 64c1-1.6 3-2.9 5.8-2.7 5.5.2 10.1.7 18.5.2-8.2-.3-18.2-1.4-30.3-3.5 3 2.2 5.5 5.5 5.9 6.2" fill="#09397f"/><path d="M64 56.9c-10 2.4-31.5 1.5-57.1-3 1.7.9 3 1.9 4.5 3.2 25.1 4.5 41.5 4.4 51.2 1.7.9-.6 1-1.1 1.3-2" fill="#095fa8"/><path d="M63.8 56.3c-9 2.2-27.7 1.3-50.8-2-2.3-.3-8.7-1.3-12.6-2-.3-.5-.4-1.2-.4-2.1C14.4 52.1 51 58 63.6 55c0 .3.2.5.2 1.2" fill="#09397f"/></svg>