<svg xmlns="http://www.w3.org/2000/svg" viewBox="0 0 64 64"><path d="m5.882 311.972-3.345.368L0 313.443h2.941l2.94-1.47M5.882 311.972l3.419.294 2.463 1.177H8.823l-2.941-1.47" fill="#fbc707"/><path d="m5.882 303.15 3.198-.11 2.684-1.361H8.823l-2.941 1.47" fill="#f68712"/><path d="M5.882 303.15H2.665L0 301.678h2.941l2.94 1.47" fill="#f25c19"/><path d="M1.47 307.56v-3.087L0 301.679v2.94l1.47 2.942" fill="#fff200"/><path d="m1.47 307.56-.238 3.07L0 313.443v-2.941l1.47-2.941" fill="#fff200"/><path d="m10.293 307.56.313 3.217 1.158 2.666v-2.941l-1.47-2.941" fill="#f1471d"/><path d="m10.293 307.56.276-3.455 1.195-2.426v2.94l-1.47 2.942" fill="#f1471d"/><path d="m0 313.443 5.882-1.47-.938-3.75-3.474-.662L0 313.443" fill="#fab20b"/><path d="m11.764 313.443-1.47-5.882-3.953.717-.46 3.694 5.883 1.47" fill="#f47216"/><path d="m11.764 301.679-5.882 1.47.662 3.897 3.75.515 1.47-5.882" fill="#f25c19"/><path d="m0 301.679 1.47 5.882 3.548-.79.864-3.622L0 301.68" fill="#f89c0e"/><path d="m5.882 311.972-4.412-4.411 4.412-4.412 4.411 4.412-4.411 4.411" fill="#f68712"/></svg>