<svg xmlns="http://www.w3.org/2000/svg" viewBox="0 0 64 64"><path d="M166.405 168.16c-1.82 0-3.641.606-5.13 1.655-1.104 1.324-3.421 1.49-3.918 3.255 1.214 1.49.166 3.31-1.324 4.248-2.041 1.103.22 2.538.22 3.917-1.6 1.49-.827 3.752.884 4.8.165 1.324.993 2.317 2.04 2.98a2.39 2.39 0 0 0 1.104.606c.11.22.055.276 0 .441-.11.166-.386.442-.717.718s-.717.551-.993.993-.441.938-.331 1.6c.276 1.324 1.048 2.317 1.71 3.31.607.993 1.048 1.876.938 2.98-.11.385-.552.716-1.103.827-.552.11-1.159 0-1.435-.276-.22-.22-.33-.772-.276-1.269s.166-.938.166-.938v-.11s-.441-.442-.662-.442-.441.11-.662.276c-.442.386-.717 1.159-.717 2.593s.993 2.097 2.096 2.593 2.428.718 3.42.552c1.6-.22 2.704-1.38 3.311-2.814s.717-3.034.276-4.469c-.276-.882-.717-1.49-.883-1.765-.055-.11-.055-.166-.055-.166l.11-.055c.828.993 1.38 2.924 1.931 4.69.276.938.607 1.82 1.104 2.538s1.158 1.213 2.041 1.213 1.6-.44 1.986-1.103.497-1.49.497-2.317c0-.497-.055-1.048-.166-1.545 0 .166.11.276.166.441.496 1.27 1.6 2.097 2.813 2.428 1.214.331 2.593.276 3.752-.166 1.269-.441 1.986-1.434 2.428-2.482s.662-2.262.938-3.2v-.11c.055-.607.275-.883.551-1.16s.607-.33.938-.44c.166 0 .276-.11.441-.166.056 0 .166-.11.221-.166s.166-.22.166-.386c0-.276-.166-.441-.331-.607s-.387-.33-.718-.551h-.11c-1.214-.387-2.427.055-3.255.882s-1.434 1.876-1.655 2.87c-.11.717-.552 1.544-.938 1.93-.22.221-.386.276-.607.276s-.441-.11-.717-.496c-.607-.773-.552-1.931-.552-3.2 0-.607 0-1.27-.276-1.876s-.607-1.159-1.213-1.545c-.276-.165-.442-.276-.497-.386s-.055-.11 0-.166c0-.11.22-.386.552-.717.165-.165.386-.33.551-.552 0 0 .056 0 .11-.055 1.325-.772 1.821-2.427 2.76-3.696.992-1.71-1.932-3.2 0-4.635 1.379-2.206-2.263-2.813-2.539-4.634.662-.828 1.104-2.317-.11-3.145-1.876-.993-3.476-2.482-5.517-3.255a7.3 7.3 0 0 0-2.814-.552z" fill="#324b64"/><path d="M165.909 169.097c-.718 0-1.435.221-2.042.552-4.91 2.924-7.172 9.434-5.462 14.841.828 1.6-.33 4.303 2.152 4.745.993 1.655-2.427 1.93-1.986 3.972.496 2.373 2.98 3.972 2.593 6.455-.331 1.214-2.428 1.49-3.2.773-.772-.718-.276-2.649-.276-2.649s-1.103-.386-1.103 2.483 3.2 3.034 5.02 2.759c2.814-.442 4.028-4.138 3.255-6.731-.496-1.6-1.71-2.097-.33-2.648 2.261 2.096 2.04 8.551 4.965 8.551s2.041-5.407.772-7.724c1.655.331 1.435 2.152 2.097 3.476.882 2.372 3.917 2.814 6.069 2.041 2.262-.772 2.482-3.42 3.09-5.407.275-2.758 3.916-1.434 1.434-3.034-2.097-.662-4.028 1.6-4.359 3.42-.276 1.6-1.655 3.642-3.034 1.876-1.435-1.82.33-5.186-1.931-6.455-2.428-1.434 2.041-2.427.607-4.082.33-1.82.937-3.586.937-5.462-.22-3.917-2.813-7.228-5.406-9.931-.828-1.103-2.152-1.71-3.531-1.765h-.331zm6.786 16.22c.386 0 .772.277.938 1.104.386.993-.497 2.483-1.655 1.986-1.545-.827-.276-2.979.717-3.09zm-11.752.111c.387 0 .773.331.828 1.159.276 1.048-.828 2.372-1.931 1.82-1.435-.993.055-3.034 1.103-2.979zm21.352 6.676c.606 0-.883.551-1.049 1.158-.882 1.766-.441 2.649-1.655 4.8.386-3.255.717-5.627 2.317-5.903h.387zm-16.717 1.71c2.096.938 1.49 2.097 1.986 4.69-.883-2.097-.938-3.09-1.986-4.69zm-1.159 5.02c-.441 1.435-1.434 3.366-3.145 3.532-1.379.055-2.979-.331-3.862-1.435 1.27 1.104 4.47.883 6.014-.772l.938-1.27z" fill="#e1af64"/></svg>