<svg xmlns="http://www.w3.org/2000/svg" viewBox="0 0 64 64"><path d="M32.6 64c-3.1-2.2-5.8-4.9-8.1-7.9h13.8L32.6 64zM32.6 1.9c-3.1 2.2-5.8 4.9-8.1 7.9h13.8l-5.7-7.9zM47.2 44.6c-9.2-6.7-9.2-20.4 0-27.1l-5.3-7.3c-14.2 10.3-14.2 31.5 0 41.8l5.3-7.3z" fill="#8c96a0"/><path d="M40.2 54.2c-15.7-11.4-15.7-34.9 0-46.3L34.5 0c-21.1 15.3-21.1 46.8 0 62.1l5.7-7.9z" fill="#8c96a0"/><path d="M45.3 46.5c-9.2-6.7-9.2-20.4 0-27.1L40 12.1c-14.2 10.3-14.2 31.5 0 41.8l5.3-7.3z" fill="#3f87af"/><path d="M38.4 56.1c-15.7-11.4-15.7-34.9 0-46.3H24.6a38.254 38.254 0 0 0 0 46.3" fill="#3f87af"/></svg>