<svg xmlns="http://www.w3.org/2000/svg" viewBox="0 0 64 64"><g fill="#61dafb"><circle cx="32" cy="32" r="5.8" transform="rotate(-13.3 31.916 31.976)"/><path d="M64 32c0-4.5-4.8-8.4-13.1-10.9 2-8.4 1-14.5-2.9-16.8-3.4-2-8.2-.6-13.6 3.7-.8.6-1.5 1.3-2.4 2.1-6.3-6-12-8.2-16-5.9-4 2.3-4.9 8.3-2.9 16.8C4.8 23.6 0 27.5 0 32s4.8 8.5 13.1 10.9c-2 8.5-1 14.5 2.9 16.8 3.9 2.3 9.8 0 16-5.9 4.6 4.3 9 6.7 12.6 6.7 1.2 0 2.4-.3 3.4-.9 3.9-2.3 4.9-8.3 2.9-16.8C59.2 40.3 64 36.4 64 31.9zM36.9 11c3.8-3.1 7.4-4.4 9.2-3.4 1.8 1.1 2.8 5.3 1.1 12.5-2.5-.5-5.1-.9-7.7-1.2-1.5-2.1-3.1-4.1-4.9-6 .8-.7 1.5-1.4 2.1-2zM19.2 36.5c.4.8.8 1.5 1.2 2.2.4.7.9 1.5 1.3 2.2-1.3-.2-2.6-.4-3.9-.7.4-1.2.8-2.5 1.3-3.7zm-1.3-12.7c1.2-.3 2.5-.5 3.9-.7-.5.8-.9 1.5-1.3 2.2-.4.7-.8 1.4-1.2 2.2-.5-1.2-.9-2.5-1.3-3.7zm3.3 8.2c1.6-3.2 3.4-6.4 5.4-9.4 3.6-.3 7.2-.3 10.8 0 1 1.5 2 3 2.9 4.6s1.7 3.2 2.5 4.8c-.8 1.6-1.6 3.2-2.5 4.8-.9 1.6-1.9 3.1-2.9 4.6-3.6.2-7.2.2-10.8 0-1-1.5-2-3-2.9-4.6S22 33.6 21.2 32zm22.4 6.7c.4-.7.8-1.4 1.2-2.2.5 1.3.9 2.5 1.3 3.7-1.2.3-2.5.5-3.9.7.5-.7.9-1.5 1.3-2.2zm1.2-11.2c-.4-.8-.8-1.5-1.2-2.2-.4-.7-.8-1.4-1.3-2.2 1.3.2 2.6.4 3.9.7-.4 1.2-.8 2.4-1.3 3.7zM32 15.6c.8.9 1.7 2 2.5 3h-5.1c.8-1.1 1.7-2 2.5-3zm-14-8c.5-.3 1-.4 1.5-.4 2.5 0 6.1 2 9.9 5.6-1.7 1.9-3.4 3.9-4.9 6-2.6.2-5.2.6-7.7 1.2-1.8-7.1-.9-11.4 1.1-12.5zm-3.9 31.7C7 37.2 3.8 34.2 3.8 32s3.2-5.1 10.3-7.3c.8 2.5 1.7 4.9 2.8 7.3-1.1 2.4-2 4.8-2.8 7.3zM18 56.4c-1.8-1.1-2.9-5.3-1.2-12.5 2.5.6 5.1.9 7.7 1.2 1.5 2.1 3.1 4.1 4.9 6-5.3 5.2-9.6 6.4-11.3 5.4zm14-8c-.9-.9-1.7-2-2.5-3h5.1c-.8 1.1-1.7 2-2.5 3zm14.1 8c-1.8 1.1-6-.2-11.4-5.3 1.7-1.9 3.4-4 4.9-6.1 2.6-.2 5.2-.6 7.7-1.2 1.7 7.2.7 11.5-1.1 12.6zm3.8-17.2c-.8-2.5-1.7-4.9-2.8-7.3 1.1-2.4 2-4.8 2.8-7.3 7.1 2.1 10.3 5.1 10.3 7.3S57 37 49.9 39.2z"/></g></svg>