<svg xmlns="http://www.w3.org/2000/svg" viewBox="0 0 64 64"><path d="M56.5 32c0-13.5-11-24.5-24.5-24.5S7.5 18.5 7.5 32s11 24.5 24.5 24.5 24.5-11 24.5-24.5" fill="navy"/><path d="M49.3 21.9c0-4-3.2-7.2-7.2-7.2s-7.2 3.2-7.2 7.2 3.2 7.2 7.2 7.2 7.2-3.2 7.2-7.2" fill="#fff"/><path d="M63.6 7.5c0-4-3.2-7.2-7.2-7.2s-7.2 3.2-7.2 7.2 3.2 7.2 7.2 7.2 7.2-3.2 7.2-7.2" fill="navy"/><g fill="#fff"><path d="M17.4 42.4h7.9v1.8h-9.9v-16h2v14.3zM34.8 44.2v-1.6c-1.1 1.5-2.2 2.1-3.9 2.1s-3.7-1.2-3.7-3.2v-8.9H29v8.2c0 1.4.9 2.3 2.4 2.3s3.2-1.5 3.2-3.9v-6.5h1.8v11.5h-1.6zM49.9 44.5c-.6.2-.9.2-1.3.2-1.2 0-1.8-.5-1.9-1.7-1.3 1.2-2.5 1.7-3.9 1.7-2.3 0-3.8-1.3-3.8-3.4s.7-2.5 2-3.1c.7-.3 1.1-.4 3.7-.7 1.5-.2 1.9-.5 1.9-1.3v-.5c0-1.1-.9-1.7-2.6-1.7s-2.6.6-2.7 2h-1.9c0-1.1.3-1.8.8-2.4.8-.9 2.2-1.3 3.8-1.3 2.8 0 4.3 1.1 4.3 3.2v6.8c0 .6.4.9 1 .9h.4v1.4zm-3.2-6c-.6.3-1 .4-3 .6-2 .3-2.8.9-2.8 2.1s.8 1.9 2.3 1.9 2-.4 2.7-1c.5-.5.7-.9.7-1.5v-2.1z"/></g><path d="M33.1 64v-.7c.9 0 1.8-.1 2.7-.2v.7c-.8.1-1.8.2-2.7.2zm-2.8 0c-.9 0-1.9-.1-2.8-.3V63c1 .1 1.9.2 2.8.3v.7zm8.3-.7-.2-.7c.9-.2 1.8-.4 2.6-.7l.2.7c-.9.3-1.8.5-2.7.7zm-13.9-.1c-.9-.2-1.8-.5-2.7-.7l.2-.7c.9.3 1.7.5 2.6.7l-.2.7zm19.2-1.5-.3-.7c.8-.3 1.7-.7 2.5-1.1l.3.7c-.8.4-1.7.8-2.5 1.2zm-24.5-.2c-.9-.4-1.7-.8-2.5-1.2l.3-.6c.8.4 1.6.8 2.5 1.2l-.3.7zm29.5-2.3-.4-.6c.8-.5 1.5-1 2.2-1.5l.4.6c-.7.6-1.5 1.1-2.3 1.6zm-34.4-.3c-.8-.5-1.5-1.1-2.3-1.6l.5-.6c.7.6 1.5 1.1 2.2 1.6l-.4.6zm38.8-3.1-.5-.5c.7-.6 1.3-1.3 1.9-1.9l.5.5c-.6.7-1.3 1.3-2 2zm-43.2-.4c-.7-.6-1.3-1.3-2-2l.5-.5c.6.7 1.3 1.3 1.9 1.9l-.5.5zm47.1-3.7-.6-.5c.6-.7 1.1-1.5 1.6-2.2l.6.4c-.5.8-1.1 1.5-1.6 2.3zm-50.8-.4c-.6-.7-1.1-1.5-1.6-2.3l.6-.4c.5.8 1 1.5 1.5 2.2l-.6.4zM60.2 47l-.6-.3c.4-.8.8-1.6 1.2-2.5l.7.3c-.4.9-.8 1.7-1.2 2.5zm-56.8-.5c-.4-.8-.8-1.7-1.2-2.5l.7-.3c.3.8.7 1.7 1.1 2.5l-.7.3zm59-4.7-.7-.2c.3-.9.5-1.7.7-2.6l.7.2c-.2.9-.5 1.8-.7 2.7zm-61.1-.5c-.3-.9-.5-1.8-.7-2.7l.7-.2c.2.9.4 1.8.7 2.6l-.7.2zm62.3-4.9h-.7c.1-1 .2-1.9.3-2.8h.7c0 1-.1 1.9-.3 2.8zM.2 35.9C.1 35 0 34.1 0 33.2h.7c0 .9.1 1.8.2 2.7H.2zm63-4.9c0-.9-.1-1.8-.2-2.7h.7c.1.8.2 1.8.2 2.7h-.7zM.8 30.4H0c0-1 .1-1.9.3-2.8H1c-.1 1-.2 1.9-.3 2.8zm61.8-4.9c-.2-.9-.4-1.8-.7-2.6l.7-.2c.3.9.5 1.8.7 2.7l-.7.2zM1.5 25l-.7-.2c.2-.9.5-1.8.7-2.7l.7.2c-.3.9-.5 1.7-.7 2.6zM61 20.3c-.3-.8-.7-1.7-1.1-2.5l.7-.3c.4.8.8 1.7 1.2 2.5l-.7.3zm-57.8-.5-.7-.3c.4-.9.8-1.7 1.2-2.5l.6.3c-.4.8-.8 1.6-1.2 2.5zM5.8 15l-.6-.4c.5-.8 1.1-1.5 1.6-2.3l.6.5c-.6.7-1.1 1.5-1.6 2.2zm3.4-4.3-.5-.5c.6-.7 1.3-1.3 2-2l.5.5c-.7.6-1.3 1.3-1.9 1.9zm4-3.7-.4-.6c.7-.6 1.5-1.1 2.3-1.6l.4.6c-.8.5-1.5 1-2.2 1.6zm33.5-2.7c-.8-.4-1.6-.8-2.5-1.2l.3-.7c.9.4 1.7.8 2.5 1.2l-.3.6zm-28.9-.2-.3-.7c.8-.4 1.7-.8 2.5-1.2l.3.7c-.8.3-1.7.7-2.5 1.1zm23.9-1.9c-.9-.3-1.7-.5-2.6-.7l.2-.7c.9.2 1.8.5 2.7.7l-.2.7zm-18.8-.1-.2-.7c.9-.3 1.8-.5 2.7-.7l.2.7c-.9.2-1.8.4-2.6.7zM36.4 1 33.7.7V0c1 0 1.9.1 2.8.3V1zm-8.3 0V.2c.8-.1 1.8-.2 2.7-.2v.7c-.9 0-1.8.1-2.7.2z" fill="gray"/></svg>