<svg xmlns="http://www.w3.org/2000/svg" viewBox="0 0 64 64"><defs><linearGradient id="a" x1="33.8" y1="59.4" x2="29.7" y2="72.7" gradientTransform="matrix(1 0 0 -1 0 90)" gradientUnits="userSpaceOnUse"><stop offset="0" stop-color="#512"/><stop offset=".2" stop-color="#523"/><stop offset=".4" stop-color="#534"/><stop offset=".5" stop-color="#645"/><stop offset=".7" stop-color="#568"/><stop offset=".8" stop-color="#29d"/></linearGradient><linearGradient id="b" x1="63.3" y1="20.8" x2="22.2" y2="10.7" gradientTransform="translate(0 18)" gradientUnits="userSpaceOnUse"><stop offset="0" stop-color="#c33"/><stop offset=".2" stop-color="#de5239"/><stop offset=".3" stop-color="#f06e3e"/><stop offset=".4" stop-color="#fa8042"/><stop offset=".5" stop-color="#fe8643"/><stop offset=".6" stop-color="#fa7f42"/><stop offset=".7" stop-color="#ef6c3e"/><stop offset=".8" stop-color="#dc4c37"/><stop offset=".9" stop-color="#cf3633"/></linearGradient></defs><path d="m0 35.5 18.2-7.4c1.8-2.4 3.9-4.7 6.2-6.7 1.5-.8 4.3-.4 9.5-6.8S40.5 3 42.9 3c3.7 0 6.5 8 10.6 20.2 3 9.3 6.4 18.4 10.4 27.4-4.3-4-8-8.4-12.3-8.3-4 0-8.3 4.8-13.1 10.7-3.8 4.8-8.8 8.1-10.8 8 0 0-5.1-14.3-9.3-16.7-1.8-.7-3.8-.6-5.5.5L0 35.5z" fill="#49d"/><path d="M40.7 4.6c-1.5 2-3.4 5.8-6.7 10-5.2 6.5-8 6-9.5 6.8-2.3 2-4.4 4.3-6.2 6.7l7.5 5.5c6.4-8.7 9.8-18.2 12.5-24.3.7-1.7 1.5-3.2 2.4-4.8z" fill="url(#a)"/><path d="M43 3c-5 0-8.4 26.2-26.8 40.9 5.2-.8 9.6 12 11.7 17.2 9.1-1.5 16.5-19 23.8-18.8 4.2.2 8 4.3 12.3 8.3C54 29.7 49.4 3 43 3z" fill="url(#b)"/></svg>