<svg xmlns="http://www.w3.org/2000/svg" viewBox="0 0 64 64"><defs><linearGradient id="a" x1="32" y1="8.5" x2="32" y2="55.5" gradientUnits="userSpaceOnUse"><stop offset="0" stop-color="#f29100"/><stop offset="1" stop-color="#ec670f"/></linearGradient></defs><path d="M39.2 48c0-.6 0-1.3-.1-1.9-.2-.5-.6-.6-.8-1-.7-1.1-1.4-2.6-1.4-4 0-1.2-.5-2.4-.6-3.6v-3.1l.2-.4c0-.1 1.3 0 1.7 0h2.1c1.4 0 2.7 0 4.1-.2 3.1-.5 4.5-1.8 5.3-2.3 2.9-2.1 4.2-5.4 4.2-5.4.5-1.1.5-2.9 1.5-3.8 1.2-1 3.2-.9 4.6-1.5.8-.4 1.4-.5 2.2-.4.6.1 1.7.8 2-.2-.2-.1-.3-.4-.4-.5 1.1-.1 0-2.7-.4-3.3-.7-.8-1.8-1.2-3.1-1.5-1.5-.4-2.8-.8-4.1-.6-2.4.5-2.2-.9-3.6-.9s-4.7 0-5.2 1.7c-.2.8-.5.8-.9 1.4-.4.5 0 .9-.1 1.5-.2.6-.5 2.7-.7 3.4-.5 1.2-1.1 2.8-2.1 2.8-1.5.2-2.7.2-3.9-.2-.7-.3-1.9-.7-2.5-.9-2.8-1.2-3.2-2.4-3.2-2.4-.3-.5-1.1-1.3-1.4-2.3-.3-1.1-.9-2.1-1.1-2.7-.2-.6-.8-1.6-1.2-2.7-.5-1.4-1.3-2.4-1.9-2.9-.9-.8-1.7-2-3.4-1.6-.3 0-1.5.1-2.3.8-.6.5-.8 1.5-1.3 2.4-.3.5-.9 1.9-1.4 3.1-.4.8-.5 1.4-.9 1.8-.3.2-.7.5-1.1.4-.3-.1-.6-.3-.9-.5-.4-.3-1.3-1.9-1.9-3-.5-1-1.5-2.5-2.1-3.3-.9-1.2-1.4-1.5-2.7-1.5-2.8 0-3 1.5-4.2 3.8-.5 1-.7 2.6-1.8 3.8-.6.7-2.6 3.6-3.9 4.1H0V41c0-.4.2-.6.3-.9.5-1.1 1.7-2.2 2.4-3.3.4-.6.8-1.2 1-1.9.2-.6.3-1.4.6-1.9.4-.6 1-.8 1.6-.9.9-.2 1.7 1.3 2.9 1.9.5.2 2.9 1.1 3.6 1.2 1.2.3 2.5.5 3.6.7.6.1 1.2.2 1.9.3.6 0 2.8.1 2.9.3-1.1.6-1.8 2.2-2.2 3.3-.4 1.2-.7 2.5-1.3 3.6-.6 1.3-1.8 1.8-1.7 3.3 0 .6.2 1.2 0 1.9-.1.7-.4 1.2-.6 1.9-.3.9-.6 3.7-1 4.5l2.4-.3c.3-.6.5-3.3.6-3.6.5-1.3 1.1-2.4 2-3.5.9-1 .9-2.3 1.4-3.5.6-1.3 1.3-2.3 2.1-3.5 1.3-2.2 2.2-4.9 5-5.5.3 0 2 1.2 2.8 1.9.9.8 1.8 1.8 2.4 3 1.1 2.2 2 5.5 2.4 7.2.2 1 .4 1.1 1.1 1.9.3.4 1 1.5 1.2 2 .2.5.6 1.6.8 2.1.2.3.6 1.3.9 2.2h2.3c-1.1-2.3-1.9-4.9-2.2-7.4z" fill="url(#a)"/><path d="M32.1 42z" fill="#484444"/></svg>