<svg xmlns="http://www.w3.org/2000/svg" viewBox="0 0 64 64"><path d="M55.9 32.7C54 26.3 44 20.7 32 20.7s-22 5.6-23.9 12l-2.3 2-3.3-6.3L0 17.8l4.3 1.8c1.2-1.2 2-2.1 5-3.8l2.9-5.9 4.9 3.8c3.3-.8 6.5-1.6 10.2-1.4L32 7.8l4.7 4.5c3.7-.2 7 .7 10.2 1.4l4.9-3.8 2.9 5.9c3 1.7 3.9 2.6 5 3.8l4.3-1.8-2.5 10.6-3.3 6.3-2.3-2z" fill="#efc743"/><path d="m58.6 33.3-2.7-.7-4.9 6.3-6.7 2-12.4-7-12.4 7-6.7-2-4.9-6.3-2.7.7-2.9-5 5.6 15.8c3.9 8.2 16.1 12.2 23.9 12.2s20-4 23.9-12.2l5.6-15.8-2.9 5z" fill="#f3d572"/></svg>