<svg xmlns="http://www.w3.org/2000/svg" viewBox="0 0 64 64"><defs><linearGradient id="a" x1="11.3" y1="-4.6" x2="48.3" y2="28.6" gradientTransform="translate(0 18)" gradientUnits="userSpaceOnUse"><stop offset="0" stop-color="#5391fe"/><stop offset="1" stop-color="#3e6dbf"/></linearGradient></defs><path d="M0 0h63.9v64H0V0z" fill="none"/><path d="M13.2 8h48.5c1.2 0 2.2.8 2.2 2v.7l-9.8 42.6c-.4 1.5-1.8 2.6-3.4 2.7H2.2C1 56 .1 55 .1 53.9v-.6l9.7-42.6c.4-1.5 1.8-2.6 3.4-2.7z" fill="url(#a)" fill-rule="evenodd"/><path d="M39.2 32.8c-.3.6-.8 1-1.4 1.4L16 50c-1.3.9-3 .6-4-.6-.9-1.3-.6-3 .6-4l19.8-14.3v-.3L20 17.5c-.9-1.3-.5-3.1.8-3.9 1-.7 2.3-.6 3.2 0l14.9 15.9c.8.9 1 2.3.3 3.3zm-7.5 11.8h11.8c1.4 0 2.5 1.1 2.5 2.5s-1.1 2.5-2.5 2.5H31.7c-1.4 0-2.5-1.1-2.5-2.5s1.1-2.5 2.5-2.5z" fill="#fff" fill-rule="evenodd"/></svg>