<svg xmlns="http://www.w3.org/2000/svg" viewBox="0 0 64 64"><defs><linearGradient id="a" x1="29" y1="45.1" x2="29" y2="45" gradientTransform="matrix(721.1 0 0 -482.9 -20881.8 21764.2)" gradientUnits="userSpaceOnUse"><stop offset="0" stop-color="#cbced0"/><stop offset="1" stop-color="#84838b"/></linearGradient><linearGradient id="b" x1="28.2" y1="45.4" x2="28.3" y2="45.3" gradientTransform="matrix(398 0 0 -406.1 -11215 18457.5)" gradientUnits="userSpaceOnUse"><stop offset="0" stop-color="#276dc3"/><stop offset="1" stop-color="#165caa"/></linearGradient></defs><g fill-rule="evenodd"><path d="M32 50.2c-17.7 0-32-9.6-32-21.4S14.3 7.3 32 7.3s32 9.6 32 21.4-14.3 21.4-32 21.4zm4.9-34.5c-13.4 0-24.3 6.6-24.3 14.7s10.9 14.7 24.3 14.7 23.3-4.5 23.3-14.7-9.9-14.7-23.3-14.7z" fill="url(#a)"/><path d="M48.7 40.5s1.9.6 3.1 1.2c.4.2 1.1.6 1.6 1.1.5.5.7 1 .7 1l7.6 12.9H49.4l-5.8-10.8s-1.2-2-1.9-2.6c-.6-.5-.9-.7-1.5-.7h-2.9v14.1H26.4V20.6h21.9s10 .2 10 9.7-9.5 10.2-9.5 10.2zM44 28.4h-6.6v6.1H44s3.1 0 3.1-3.1-3.1-3-3.1-3z" fill="url(#b)"/></g></svg>