<svg xmlns="http://www.w3.org/2000/svg" viewBox="0 0 64 64"><path d="M61.8 14.4c-2-2.7-5-4.4-8.6-4.7-3.5-.3-7.2.7-10.2 2.9-3 2.2-5.1 5.4-5.9 8.8-.6 2.6-.3 5.2.7 7.5-1.6-.8-3.6-1.3-5.6-1.3s-4.6.6-6.4 1.7c1.3-2.3 1.7-5 1.3-7.7-.6-3.8-2.8-7.3-6-9.7-3-2.2-6.7-3.3-10.3-2.9-3.6.3-6.6 2-8.6 4.8-2 2.7-2.7 6.2-1.9 9.7.8 3.5 2.8 6.7 5.9 8.9 2.2 1.6 4.7 2.6 7.3 2.9-.6.3-1.1.6-1.6 1-2.4 1.8-4.1 4.3-4.7 7.1-.6 2.8 0 5.5 1.5 7.7 1.6 2.2 4.1 3.5 6.9 3.8h1.1c2.5 0 5-.8 7.1-2.4 2.4-1.8 4.1-4.3 4.7-7.1 0-.3.1-.6.1-.9 1.1.3 2.3.5 3.6.5s2.7-.2 3.9-.6c.3 3.1 2 6.1 4.9 8.2 2.1 1.6 4.6 2.4 7.1 2.4h1.1c2.9-.3 5.3-1.6 6.9-3.8 1.6-2.2 2.1-4.9 1.5-7.7-.6-2.8-2.3-5.3-4.7-7.1-.4-.3-.8-.5-1.2-.8 2.2-.4 4.3-1.3 6.1-2.7 3-2.2 5.1-5.4 5.9-8.8.8-3.5 0-6.9-1.9-9.6zm-19.1 20v-.2s.2 0 .2.1h-.2zm-20.6-1-.3.9c-.3 0-.6-.1-.9-.2.4-.2.8-.4 1.2-.7zm10.1 10.9c-1.2 0-2.4-.2-3.5-.5.1-2.2-.5-4.3-1.8-6.1-1.1-1.5-2.6-2.6-4.4-3.2 1.1-3.4 5-6 9.7-6s4.6.7 6.3 1.8c.2.3.4.6.6.8.7.9 1.5 1.7 2.4 2.4.2.4.3.8.5 1.2-1.7.6-3.1 1.7-4.2 3.2-1.3 1.7-1.8 3.8-1.8 5.9-1.2.4-2.5.6-3.8.6z"/><path d="M15.5 26c-2.3-1.9-2.4-5.6-.3-8.2 2.2-2.6 5.8-3.2 8.1-1.3 2.3 1.9 2.5 5.6.3 8.2-2.2 2.6-5.8 3.2-8.1 1.3z" fill="none"/><path d="M23.3 16.5c-.8-.7-1.9-1.1-2.9-1.1.3.2.7.4 1 .6 2.3 1.9 2.5 5.6.3 8.2-1.4 1.7-3.3 2.5-5.1 2.4 2.3 1.1 5.2.3 7.1-1.9 2.2-2.6 2-6.3-.3-8.2z" fill="#0f0" fill-rule="evenodd"/><path d="M13.6 25.5c-2.3-1.9-2.5-5.6-.3-8.2 2.2-2.6 5.8-3.2 8.1-1.3 2.3 1.9 2.5 5.6.3 8.2-2.2 2.6-5.8 3.2-8.1 1.3z" fill="none"/><path d="M17.9 32c-1.1-.7-2.4-1.4-3.7-2.2-3-1.6-6-3.4-7.7-5.8-.3-.5-.7-.9-1-1.4C4.3 21.1 3 19.5 5 17c.4-.5.8-1.1 1.2-1.6 1.3-1.8 2.6-3.6 4.9-3.9h.4c2.9.4 5.6.8 7.7 4.4.1.2.1.4.1.6v1.4c0 2.1 0 5.3-2.4 7.1h-.1l-3.6 2c.6.4 1.3.7 1.9 1.1 1.3.7 2.6 1.4 3.8 2.2l-1.1 1.6zm-6.6-18.6c-1.5.3-2.4 1.6-3.5 3.1-.4.6-.8 1.1-1.3 1.7-1 1.3-.7 1.7.5 3.2.3.4.7.9 1.1 1.5.8 1.2 2.2 2.3 3.7 3.3l-.2-.4 4.2-2.4c1.5-1.2 1.6-3.6 1.6-5.6v-1.3c-1.6-2.6-3.4-2.8-6.1-3.2z" fill="#00f"/><path d="M12.1 23.3c-2.1 0-3.9-1.7-3.9-3.8s1.7-3.8 3.9-3.8 3.9 1.7 3.9 3.8-1.7 3.8-3.9 3.8z" fill="none"/><path d="M13.8 21.6c-.8.7-2 .5-2.7-.3s-.6-2 .2-2.7c.8-.7 2-.5 2.7.3.7.8.6 2-.2 2.7z" fill="none"/><path d="M18.2 32.3c-1.4-1-3.2-1.5-5-2.1-2.6-.9-5.4-1.7-6.9-4-.2-.3-.5-.7-.7-1.1-.8-1.2-1.7-2.5-2.2-3.8-.6-1.7-.5-3.1.5-4.3 2.2-3.5 4.8-5.2 7.7-5.2h.1c1.7.2 3.3.7 4.5 1.3 1.6.8 2.6 1.9 3 3.2v1.5c0 1.9-.2 4.6-2.6 6.5l-4.1 3.2-1.2-1.5 4.1-3.2c1.7-1.3 1.8-3.3 1.9-5v-1c-.6-1.5-2.7-2.6-5.8-3-2.2 0-4.3 1.5-6.1 4.4-1.1 1.4 0 3.3 1.8 5.8.3.4.5.7.8 1.1 1.1 1.7 3.4 2.4 5.9 3.2 1.9.6 3.8 1.2 5.5 2.3l-1.1 1.6z" fill="#00f"/><path d="M20.4 32.5c-.3.5-1.4.3-2.5-.3s-1.8-1.5-1.5-2c.3-.4 1.4-.3 2.5.3s1.8 1.5 1.5 2z" fill="#00f" fill-rule="evenodd"/><path d="M20.4 32.5c-.3.5-1.4.3-2.5-.3s-1.8-1.5-1.5-2c.3-.4 1.4-.3 2.5.3s1.8 1.5 1.5 2z" fill="none"/><path d="M32.2 44.6c-5.7 0-10.4-3.7-10.4-8.3S26.4 28 32.2 28s10.4 3.7 10.4 8.3-4.6 8.3-10.4 8.3z" fill="#ff0" fill-rule="evenodd"/><path d="M25.1 36.2c-2.3 0-4.1-1.9-4.1-4.1s1.9-4.1 4.1-4.1 4.2 1.9 4.2 4.1-1.9 4.1-4.2 4.1z" fill="#fff" fill-rule="evenodd"/><path d="M25.1 36.7c-2.5 0-4.6-2.1-4.6-4.6s2.1-4.6 4.6-4.6 4.6 2.1 4.6 4.6-2.1 4.6-4.6 4.6zm0-8.3c-2 0-3.7 1.7-3.7 3.7s1.7 3.7 3.7 3.7 3.7-1.7 3.7-3.7-1.7-3.7-3.7-3.7z"/><path d="M59 29.1c-2.3 1.9-5.9 1.3-8-1.3s-2-6.3.3-8.1 5.9-1.3 8 1.3c2.1 2.6 2 6.3-.3 8.1z" fill="none"/><path d="M59.3 21c-1.5-1.9-3.8-2.7-5.8-2.3 1.4.2 2.9 1 3.9 2.3 2.1 2.6 2 6.3-.3 8.1-.7.5-1.4.9-2.2 1 1.5.3 3 0 4.2-1 2.3-1.9 2.4-5.5.3-8.1z" fill="#0f0" fill-rule="evenodd"/><path d="M57.1 29.1c-2.3 1.9-5.9 1.3-8-1.3s-2-6.3.3-8.1c2.3-1.9 5.9-1.3 8 1.3s2 6.3-.3 8.1z" fill="none"/><path d="M47.4 28.2c-1.9 0-3.4-1.5-3.4-3.4s1.5-3.4 3.4-3.4 3.4 1.5 3.4 3.4-1.5 3.4-3.4 3.4z" fill="none"/><path d="M48.6 26.7c-.8.6-2 .5-2.6-.3-.7-.8-.6-2 .2-2.6.8-.7 2-.5 2.6.3.7.8.6 2-.2 2.7z" fill="none"/><path d="M38.8 36.2c-2.3 0-4.2-1.9-4.2-4.1s1.9-4.1 4.2-4.1 4.1 1.9 4.1 4.1-1.9 4.1-4.1 4.1z" fill="#fff" fill-rule="evenodd"/><path d="M38.8 36.7c-2.5 0-4.6-2.1-4.6-4.6s2.1-4.6 4.6-4.6 4.6 2.1 4.6 4.6-2.1 4.6-4.6 4.6zm0-8.3c-2 0-3.7 1.7-3.7 3.7s1.7 3.7 3.7 3.7 3.7-1.7 3.7-3.7-1.7-3.7-3.7-3.7z"/><path d="M25.2 34.2c-1.1 0-2.1-.9-2.1-2.1S24 30 25.2 30s2.1.9 2.1 2.1-.9 2.1-2.1 2.1z" fill-rule="evenodd"/><path d="M25.2 34.2c-1.1 0-2.1-.9-2.1-2.1S24 30 25.2 30s2.1.9 2.1 2.1-.9 2.1-2.1 2.1z" fill="none"/><path d="M39 33.9c-1.2 0-2.1-.9-2.1-2.1s.9-2.1 2.1-2.1 2.1.9 2.1 2.1-.9 2.1-2.1 2.1z" fill-rule="evenodd"/><path d="M39 33.9c-1.2 0-2.1-.9-2.1-2.1s.9-2.1 2.1-2.1 2.1.9 2.1 2.1-.9 2.1-2.1 2.1z" fill="none"/><path d="M33.2 42.2c-1.2 0-2.5-.4-3.4-1-1.2-.7-1.8-1.7-1.7-2.7l1.1.2c-.1.7.8 1.3 1.1 1.6 1.4.9 3.4 1.1 4.2.5.2-.1.6-.4.4-1.5V39h1.2v.2c.3 1.5-.4 2.3-.8 2.6-.5.4-1.3.6-2 .6z" fill="#f36"/><path d="M12.6 50.3c-2.4-2-2.5-5.8-.2-8.6s6.1-3.5 8.5-1.5c2.4 2 2.5 5.8.2 8.6s-6.1 3.5-8.5 1.5z" fill="none"/><path d="M15.4 47.1c-1.1-.9-.9-2.9.4-4.4 1.3-1.6 3.2-2.1 4.3-1.2 1.1.9.9 2.9-.4 4.4-1.3 1.6-3.2 2.1-4.3 1.2zM51.7 50.3c-2.4 2-6.2 1.3-8.5-1.5s-2.2-6.6.2-8.6c2.4-2 6.2-1.3 8.5 1.5s2.2 6.6-.2 8.6z" fill="none"/><g fill-rule="evenodd"><path d="M12.1 23.3c-2.1 0-3.9-1.7-3.9-3.8s1.7-3.8 3.9-3.8 3.9 1.7 3.9 3.8-1.7 3.8-3.9 3.8z" fill="#f36"/><path d="M13.8 21.6c-.8.7-2 .5-2.7-.3s-.6-2 .2-2.7c.8-.7 2-.5 2.7.3.7.8.6 2-.2 2.7z" fill="#00f"/><path d="M47.4 28.2c-1.9 0-3.4-1.5-3.4-3.4s1.5-3.4 3.4-3.4 3.4 1.5 3.4 3.4-1.5 3.4-3.4 3.4z" fill="#f36"/><path d="M48.6 26.7c-.8.6-2 .5-2.6-.3-.7-.8-.6-2 .2-2.6.8-.7 2-.5 2.6.3.7.8.6 2-.2 2.7z" fill="#00f"/><path d="M12.6 50.3c-2.4-2-2.5-5.8-.2-8.6s6.1-3.5 8.5-1.5c2.4 2 2.5 5.8.2 8.6s-6.1 3.5-8.5 1.5z" fill="#f36"/><path d="M15.4 47.1c-1.1-.9-.9-2.9.4-4.4 1.3-1.6 3.2-2.1 4.3-1.2 1.1.9.9 2.9-.4 4.4-1.3 1.6-3.2 2.1-4.3 1.2z" fill="#00f"/><path d="M51.7 50.3c-2.4 2-6.2 1.3-8.5-1.5s-2.2-6.6.2-8.6c2.4-2 6.2-1.3 8.5 1.5s2.2 6.6-.2 8.6z" fill="#f36"/><path d="M48.6 47.3c-1.1.9-3 .3-4.3-1.2-1.3-1.6-1.5-3.6-.4-4.4 1.1-.9 3-.3 4.3 1.2 1.3 1.6 1.5 3.5.4 4.4z" fill="#00f"/></g><path d="M48.6 47.3c-1.1.9-3 .3-4.3-1.2-1.3-1.6-1.5-3.6-.4-4.4 1.1-.9 3-.3 4.3 1.2 1.3 1.6 1.5 3.5.4 4.4z" fill="none"/><path d="M61.1 17.1c-.6-1.8-2-3.2-4-3.9-1.6-.6-3.7-.8-5.9-.5-1.9.2-3.7.8-4.7 1.5-.2.2-.4.3-.6.4-2.8 1.9-2.9 1.9-4.4 4.3-.2.3-.4.5-.6.9-1.1 1.7-1 3.9-.6 5.4.4 1.8 1.3 3.7 2.4 5 1.3 1.7 2.6 2.1 3.9 2.1.7 0 1.4-.1 2.2-.2.3 0 .6 0 .9-.1h.7c2.5-.3 3.9-.5 4.8-3.2.5-1.6.6-3.4.2-5-.4-1.8-1.3-3.3-2.7-4.4 0 0-.1 0-.2-.1L48 17.4c.2-.2.5-.3.7-.5 1.7-1.1 5.3-2.2 7.7-1.3.6.2 1.1.5 1.5 1 .2.3.3.7.6 1l.1.1c0 .1 0 .2.1.3.9 1 1.9 1.6 2.3 1.3.4-.3.3-1.1 0-2zm-8.1 10c-.5 1.7-.8 1.7-3.6 2.1-.8.1-1.4.2-1.9.4-1.5.3-1.7.4-2.7-.9-1.5-1.8-2.7-4.7-1.2-7 .1-.2.3-.4.4-.6 1-1.5 1.3-2 2.2-2.7l2.8 1.9c1.9 1.4 4.9 4.2 4.1 6.7z" fill="#00f" fill-rule="evenodd"/><path d="M61.1 19.1c-.5.4-1.7-.4-2.7-1.7-.9-1.3-1.2-2.7-.7-3.1s1.7.4 2.7 1.7c.9 1.3 1.2 2.7.7 3.1z" fill="none"/></svg>