<svg xmlns="http://www.w3.org/2000/svg" xmlns:xlink="http://www.w3.org/1999/xlink" viewBox="0 0 64 64"><defs><linearGradient id="i" x1="-6" y1="23.8" x2="43.6" y2="74.8" gradientTransform="matrix(1 0 0 -1 0 74)" gradientUnits="userSpaceOnUse"><stop offset="0" stop-color="#bd0012"/><stop offset="0" stop-color="#bd0012"/><stop offset="0" stop-color="#fff"/><stop offset=".2" stop-color="#fff"/><stop offset=".3" stop-color="#c82f1c"/><stop offset=".3" stop-color="#820c01"/><stop offset=".5" stop-color="#a31601"/><stop offset=".7" stop-color="#b31301"/><stop offset="1" stop-color="#e82609"/><stop offset="1" stop-color="#e82609"/></linearGradient><linearGradient id="b" x1="56.2" y1="4.3" x2="42.7" y2="28.1" gradientTransform="matrix(1 0 0 -1 0 74)" gradientUnits="userSpaceOnUse"><stop offset="0" stop-color="#fb7655"/><stop offset="0" stop-color="#fb7655"/><stop offset=".4" stop-color="#e42b1e"/><stop offset="1" stop-color="#900"/><stop offset="1" stop-color="#900"/></linearGradient><linearGradient id="c" x1="49" y1="3.6" x2="31.6" y2="15.2" xlink:href="#a"/><linearGradient id="d" x1="12.5" y1="32.8" x2="15.2" y2="15.2" gradientTransform="matrix(1 0 0 -1 0 74)" gradientUnits="userSpaceOnUse"><stop offset="0" stop-color="#fff"/><stop offset="0" stop-color="#fff"/><stop offset=".2" stop-color="#e57252"/><stop offset=".5" stop-color="#de3b20"/><stop offset="1" stop-color="#a60003"/><stop offset="1" stop-color="#a60003"/></linearGradient><linearGradient id="e" x1="31.1" y1="49.1" x2="32" y2="31.2" gradientTransform="matrix(1 0 0 -1 0 74)" gradientUnits="userSpaceOnUse"><stop offset="0" stop-color="#fff"/><stop offset="0" stop-color="#fff"/><stop offset=".2" stop-color="#e4714e"/><stop offset=".6" stop-color="#be1a0d"/><stop offset="1" stop-color="#a80d00"/><stop offset="1" stop-color="#a80d00"/></linearGradient><linearGradient id="f" x1="47.5" y1="65.7" x2="50.5" y2="52.8" gradientTransform="matrix(1 0 0 -1 0 74)" gradientUnits="userSpaceOnUse"><stop offset="0" stop-color="#fff"/><stop offset="0" stop-color="#fff"/><stop offset=".2" stop-color="#e46342"/><stop offset=".4" stop-color="#c82410"/><stop offset="1" stop-color="#a80d00"/><stop offset="1" stop-color="#a80d00"/></linearGradient><linearGradient id="g" x1="38.4" y1="70.2" x2="51.3" y2="76.6" gradientTransform="matrix(1 0 0 -1 0 74)" gradientUnits="userSpaceOnUse"><stop offset="0" stop-color="#fff"/><stop offset="0" stop-color="#fff"/><stop offset=".5" stop-color="#c81f11"/><stop offset="1" stop-color="#bf0905"/><stop offset="1" stop-color="#bf0905"/></linearGradient><linearGradient id="h" x1="1.3" y1="37.2" x2="2.3" y2="26.7" gradientTransform="matrix(1 0 0 -1 0 74)" gradientUnits="userSpaceOnUse"><stop offset="0" stop-color="#fff"/><stop offset="0" stop-color="#fff"/><stop offset=".3" stop-color="#de4024"/><stop offset="1" stop-color="#bf190b"/><stop offset="1" stop-color="#bf190b"/></linearGradient><linearGradient id="a" x1="63" y1="24.3" x2="45.6" y2="36" gradientTransform="matrix(1 0 0 -1 0 74)" gradientUnits="userSpaceOnUse"><stop offset="0" stop-color="#871101"/><stop offset="0" stop-color="#871101"/><stop offset="1" stop-color="#911209"/><stop offset="1" stop-color="#911209"/></linearGradient><linearGradient id="j" x1="32" y1="18.7" x2="17.1" y2="22.4" gradientTransform="matrix(1 0 0 -1 0 74)" gradientUnits="userSpaceOnUse"><stop offset="0" stop-color="#8c0c01"/><stop offset="0" stop-color="#8c0c01"/><stop offset=".5" stop-color="#990c00"/><stop offset="1" stop-color="#a80d0e"/><stop offset="1" stop-color="#a80d0e"/></linearGradient><linearGradient id="k" x1="57.7" y1="36.6" x2="44.4" y2="48.5" gradientTransform="matrix(1 0 0 -1 0 74)" gradientUnits="userSpaceOnUse"><stop offset="0" stop-color="#7e110b"/><stop offset="0" stop-color="#7e110b"/><stop offset="1" stop-color="#9e0c00"/><stop offset="1" stop-color="#9e0c00"/></linearGradient><linearGradient id="l" x1="62.5" y1="58.4" x2="55.9" y2="65.5" gradientTransform="matrix(1 0 0 -1 0 74)" gradientUnits="userSpaceOnUse"><stop offset="0" stop-color="#79130d"/><stop offset="0" stop-color="#79130d"/><stop offset="1" stop-color="#9e120b"/><stop offset="1" stop-color="#9e120b"/></linearGradient><linearGradient id="o" x1="8.6" y1="10.2" x2="3.2" y2="28.4" gradientTransform="matrix(1 0 0 -1 0 74)" gradientUnits="userSpaceOnUse"><stop offset="0" stop-color="#8b2114"/><stop offset="0" stop-color="#8b2114"/><stop offset=".4" stop-color="#9e100a"/><stop offset="1" stop-color="#b3100c"/><stop offset="1" stop-color="#b3100c"/></linearGradient><linearGradient id="p" x1="50" y1="70.7" x2="62" y2="65.4" gradientTransform="matrix(1 0 0 -1 0 74)" gradientUnits="userSpaceOnUse"><stop offset="0" stop-color="#b31000"/><stop offset="0" stop-color="#b31000"/><stop offset=".4" stop-color="#910f08"/><stop offset="1" stop-color="#791c12"/><stop offset="1" stop-color="#791c12"/></linearGradient><radialGradient id="n" cx="23.9" cy="26.8" fx="23.9" fy="26.8" r="21.6" gradientTransform="matrix(1 0 0 -1 0 74)" gradientUnits="userSpaceOnUse"><stop offset="0" stop-color="#a30c00"/><stop offset="0" stop-color="#a30c00"/><stop offset="1" stop-color="#800e08"/><stop offset="1" stop-color="#800e08"/></radialGradient><radialGradient id="m" cx="46.5" cy="48.3" fx="46.5" fy="48.3" r="16.3" gradientTransform="matrix(1 0 0 -1 0 74)" gradientUnits="userSpaceOnUse"><stop offset="0" stop-color="#a80d00"/><stop offset="0" stop-color="#a80d00"/><stop offset="1" stop-color="#7e0e08"/><stop offset="1" stop-color="#7e0e08"/></radialGradient></defs><g fill-rule="evenodd"><path fill="url(#b)" d="M49.6 42.2 13 63.9l47.4-3.2L64 13 49.6 42.2z"/><path fill="url(#a)" d="m60.4 60.7-4-28.1-11.1 14.6 15.1 13.5z"/><path fill="url(#c)" d="m60.5 60.7-29.8-2.4-17.5 5.6 47.3-3.2z"/><path fill="url(#d)" d="m13.2 63.9 7.5-24.4L4.3 43l8.9 20.9z"/><path fill="url(#e)" d="m45.3 47.3-6.9-26.8-19.6 18.4 26.5 8.4z"/><path fill="url(#f)" d="M62.4 20.9 43.9 5.7l-5.1 16.7 23.6-1.5z"/><path fill="url(#g)" d="M53.8.3 42.9 6.4 36 .3h17.8z"/><path fill="url(#h)" d="m0 51.2 4.6-8.4-3.7-9.9L0 51.2z"/><path d="m.6 32.6 3.7 10.5 16.1-3.6 18.4-17.1L44 5.9 35.9 0 22 5.2C17.6 9.3 9.1 17.4 8.8 17.5c-.3.2-5.6 10.2-8.2 15z" fill="#fff"/><path d="M13.7 13.7c9.5-9.5 21.7-15 26.4-10.3 4.7 4.7-.3 16.3-9.8 25.7C20.8 38.5 8.7 44.4 4 39.7c-4.7-4.7.1-16.6 9.6-26z" fill="url(#i)"/><path d="m13.2 63.8 7.4-24.5 24.5 7.9c-8.9 8.3-18.7 15.3-31.9 16.6z" fill="url(#j)"/><path d="m38.9 22.3 6.3 24.9c7.4-7.8 14.1-16.2 17.3-26.5l-23.6 1.6z" fill="url(#k)"/><path d="M62.5 20.9C65 13.3 65.6 2.4 53.7.4L44 5.8 62.5 21z" fill="url(#l)"/><path d="M0 51c.3 12.5 9.4 12.7 13.3 12.8L4.4 43.1 0 51z" fill="#9e1209"/><path d="M39 22.4c5.7 3.5 17.2 10.5 17.4 10.7.4.2 4.9-7.7 6-12.2L39 22.5z" fill="url(#m)"/><path d="m20.6 39.4 9.9 19c5.8-3.2 10.4-7 14.6-11.2l-24.5-7.9z" fill="url(#n)"/><path d="M4.3 43.1 2.9 59.8c2.6 3.6 6.3 3.9 10.1 3.6-2.8-6.9-8.3-20.6-8.7-20.3z" fill="url(#o)"/><path d="m43.9 5.8 19.6 2.8c-1-4.4-4.3-7.3-9.7-8.2l-9.9 5.4z" fill="url(#p)"/></g></svg>