<svg xmlns="http://www.w3.org/2000/svg" xmlns:xlink="http://www.w3.org/1999/xlink" viewBox="0 0 64 64"><defs><linearGradient id="c" x1="23.1" y1="-786.9" x2="32" y2="-786.9" gradientTransform="matrix(1 0 0 -1 0 -778)" gradientUnits="userSpaceOnUse"><stop offset="0" stop-color="#eea831"/><stop offset="1" stop-color="#ffc929"/></linearGradient><linearGradient id="a" x1="32" y1="-807" x2="52.5" y2="-807" gradientTransform="matrix(1 0 0 -1 0 -778)" gradientUnits="userSpaceOnUse"><stop offset="0" stop-color="#b32629"/><stop offset=".6" stop-color="#8c1e21"/><stop offset="1" stop-color="#7a1a1d"/></linearGradient><linearGradient id="d" x1="32" y1="-786.9" x2="40.9" y2="-786.9" gradientTransform="matrix(1 0 0 -1 0 -778)" gradientUnits="userSpaceOnUse"><stop offset="0" stop-color="#e8a333"/><stop offset=".6" stop-color="#c68931"/><stop offset="1" stop-color="#ab762f"/></linearGradient><linearGradient id="e" y1="-827.1" x2="64" y2="-827.1" xlink:href="#a"/><linearGradient id="b" x1="0" y1="-827.1" x2="32" y2="-827.1" gradientTransform="matrix(1 0 0 -1 0 -778)" gradientUnits="userSpaceOnUse"><stop offset="0" stop-color="#ae2524"/><stop offset=".6" stop-color="#d01d19"/><stop offset="1" stop-color="#ed1913"/></linearGradient><linearGradient id="f" x1="11.5" y1="-807" y2="-807" xlink:href="#b"/></defs><path fill="url(#c)" d="M32 17.8V0l-8.9 13.2 8.9 4.6z"/><path fill="url(#a)" d="M32 23.1v17.8l20.5-10.6-9-13.2-11.5 6z"/><path fill="url(#d)" d="m32 17.8 8.9-4.6L32 0v17.8z"/><path fill="url(#e)" d="M55.1 34.2 32 46.2V64l32-16.6-8.9-13.2z"/><path fill="url(#b)" d="M0 47.4 32 64V46.2l-23.1-12L0 47.4z"/><path fill="url(#f)" d="m20.5 17.1-9 13.2L32 40.9V23.1l-11.5-6z"/></svg>