<svg xmlns="http://www.w3.org/2000/svg" viewBox="0 0 64 64"><circle cx="32" cy="32" r="32" transform="rotate(-89.8 32.012 32)" fill="#fff"/><path d="M57.2 51.8C61.5 46.4 64 39.5 64 32 64 14.3 49.7 0 32 0s-7.5.7-10.9 1.9c13 6.8 30.2 29 36.1 49.8z" fill="#3e5ba9"/><path d="M27.4 20.4c-5-5.4-10.6-9.6-16.5-12.5C4.2 13.8 0 22.4 0 32s3 15.4 7.9 21.1C12.2 40 20.4 27.5 27.4 20.4zM33.3 27.7C26.4 35.2 19.5 48.2 17 60.3c4.5 2.4 9.6 3.7 15 3.7s10.8-1.4 15.4-3.9c-2.6-12.2-7.6-23.3-14.1-32.4z" fill="#9f1d20"/></svg>