<svg xmlns="http://www.w3.org/2000/svg" viewBox="0 0 64 64"><path d="m63.6 31.2-2.7-1.6v-.9l2.3-2.1c.2-.2.3-.5.3-.9 0-.3-.3-.6-.6-.7l-3-1.1c0-.3-.2-.6-.2-.8l1.9-2.5c.2-.3.2-.6.1-.9-.1-.3-.4-.5-.7-.6l-3.1-.5c-.1-.3-.3-.5-.4-.8l1.4-2.9c.1-.3.1-.6 0-.9s-.5-.4-.8-.4l-3.2.2c-.2-.2-.4-.4-.5-.6l.8-3.1c0-.3 0-.6-.2-.9-.2-.2-.6-.3-.9-.2l-3.1.8c-.2-.2-.4-.4-.6-.5l.2-3.2c0-.3-.1-.6-.4-.8-.3-.2-.6-.2-.9 0l-2.9 1.4c-.2-.1-.5-.3-.8-.4l-.5-3.1c0-.3-.3-.6-.6-.7-.3-.1-.6 0-.9.1l-2.5 1.9c-.3 0-.5-.2-.8-.2l-1.1-3c-.1-.3-.4-.5-.7-.6-.3 0-.6 0-.9.3l-2.1 2.3h-.9L33 .6c-.4-.4-.7-.6-1-.6s-.6.2-.8.4l-1.6 2.7h-.9L26.6.8c-.2-.2-.5-.3-.9-.3s-.6.3-.7.6l-1.1 3c-.3 0-.6.2-.8.2l-2.5-1.9c-.3-.2-.6-.2-.9-.1-.3.1-.5.4-.6.7l-.5 3.1c-.3.1-.5.3-.8.4l-2.9-1.4c-.3-.1-.6-.1-.9 0-.3.2-.4.5-.4.8l.2 3.2c-.2.2-.4.4-.6.5l-3.1-.8c-.3 0-.6 0-.9.2-.2.2-.3.6-.2.9l.8 3.1c-.2.2-.4.4-.5.6l-3.2-.2c-.3 0-.6.1-.8.4-.2.3-.2.6 0 .9l1.4 2.9c-.1.2-.3.5-.4.8l-3.1.5c-.3 0-.6.3-.7.6-.1.3 0 .6.1.9l1.9 2.5c0 .3-.2.5-.2.8l-3 1.1c-.3.1-.5.4-.6.7 0 .3 0 .6.3.9l2.3 2.1v.9L.6 31c-.4.4-.6.7-.6 1s.2.6.4.8l2.7 1.6v.9L.8 37.4c-.2.2-.3.5-.3.9 0 .3.3.6.6.7l3 1.1c0 .3.2.6.2.8l-1.9 2.5c-.2.3-.2.6-.1.9.1.3.4.5.7.6l3.1.5c.1.3.3.5.4.8l-1.4 2.9c-.1.3-.1.6 0 .9.2.3.5.4.8.4l3.2-.2c.2.2.4.4.5.6l-.8 3.1c0 .3 0 .6.2.9.2.2.4.3.6.3h.2l3.1-.8c.2.2.4.4.6.5l-.2 3.2c0 .3.1.6.4.8.2.1.3.2.5.2h.4l2.9-1.4c.2.1.5.3.8.4l.5 3.1c0 .3.3.6.6.7h.3c.2 0 .4 0 .5-.2l2.5-1.9c.3 0 .5.2.8.2l1.1 3c.1.3.4.5.7.6h.2c.3 0 .5-.1.7-.3l2.1-2.3h.9l1.6 2.7c.2.3.5.4.8.4s.6-.2.8-.4l1.6-2.7h.9l2.1 2.3c.2.2.4.3.7.3h.2c.3 0 .6-.3.7-.6l1.1-3c.3 0 .6-.2.8-.2l2.5 1.9c.2.1.4.2.5.2h.3c.3-.1.5-.4.6-.7l.5-3.1c.3-.1.5-.3.8-.4l2.9 1.4h.4c.1 0 .4 0 .5-.2.3-.2.4-.5.4-.8l-.2-3.2c.2-.2.4-.4.6-.5l3.1.8h.2c.2 0 .5 0 .6-.3.2-.2.3-.6.2-.9l-.8-3.1c.2-.2.4-.4.5-.6l3.2.2c.3 0 .6-.2.8-.4.2-.3.2-.6 0-.9l-1.4-2.9c.1-.2.3-.5.4-.8l3.1-.5c.3 0 .6-.3.7-.6.1-.3 0-.6-.1-.9l-1.9-2.5c0-.3.2-.5.2-.8l3-1.1c.3-.1.5-.4.6-.7 0-.3 0-.6-.3-.9l-2.3-2.1v-.9l2.7-1.6c.3-.2.4-.5.4-.8s-.2-.6-.4-.8zM32 55.5c-3.6 0-7-.8-10.1-2.3l-.7-4.2c-.2-1-1.1-1.7-2.1-1.5l-4.2.7-1.8-2.1h19.1c.2 0 .3-.1.3-.3v-6.7c0-.2-.1-.3-.3-.3H27v-4.3h5.8c3.3 0 3.9 2.9 4.5 6 .6 2.8 1.2 5.6 4 5.6h9.4c-.5.7-1.1 1.4-1.8 2.1l-4.2-.7c-1-.2-1.9.5-2.1 1.5l-.7 4.2c-3.1 1.5-6.5 2.3-10.1 2.3zM27.7 8.9l3 3c.4.4.8.5 1.3.5s.9-.2 1.3-.5l3-3c7 1.3 13 5.8 16.3 11.8l-1.9 3.8c-.5.9-.1 2 .8 2.5l3.8 1.9c.1 1 .2 2 .2 3v1.8h-2.4c-.2 0-.3.1-.3.3v1.2c0 1.9-.9 3.1-2.4 3.3-1.3.1-2.8-.6-3.1-2.1-.5-2.4-2.2-4.7-3.3-5.4 3.5-2.1 5-5.1 4.2-8.4-.9-3.7-4.6-6.5-8.5-6.5h-25c3.4-3.7 7.9-6.3 13-7.2zm10.4 16.7c0 .5-.3 1-.8 1.4-.6.5-1.5.7-2.6.7h-7.6v-4.3h7.6c2.3 0 3.4 1.1 3.4 2.1zM12.5 27c.4-.2.8-.6.9-1.1.2-.5.1-1-.1-1.4l-.6-1.1h4v15.2H9.5c-.6-2.1-1-4.4-1-6.7s0-2 .2-3l3.8-1.9z" fill="#a04f12"/></svg>