<svg xmlns="http://www.w3.org/2000/svg" viewBox="0 0 64 64"><path d="m45.2 17.2 8.6-8.7C47 2.8 42.5 1 33.4 0v12.3l11.8 4.9z" fill="#7fba00"/><path d="m19.1 17.2-8.6-8.8C17.3 2.8 21.8 1 30.9 0v12.3l-11.8 4.9z" fill="#f35025"/><path d="m45.2 46.8 8.6 8.7C47 61.1 42.5 63 33.4 63.9V51.6l11.8-4.9z" fill="#ffb900"/><path d="m19.1 46.8-8.6 8.7c6.8 5.6 11.3 7.5 20.4 8.4V51.6l-11.8-4.9z" fill="#05a6f0"/><path d="m17.3 18.9-8.7-8.6C3 17.2 1.1 21.6.1 30.8h12.3L17.3 19z" fill="#f35025"/><path d="m46.7 18.9 8.7-8.6c5.6 6.8 7.5 11.3 8.4 20.4H51.5l-4.9-11.8z" fill="#7fba00"/><path d="m17.3 45.1-8.7 8.6C3 46.8 1.1 42.4.1 33.2h12.3L17.3 45z" fill="#05a6f0"/><path d="m46.7 45.1 8.7 8.6c5.6-6.8 7.5-11.3 8.4-20.4H51.5l-4.9 11.8z" fill="#ffb900"/><g fill="#666"><path d="M30.9 30h-11l3-7.3 3.9-1.6v6.4h4.1V15l-11.2 4.6L14.6 32l.8 2h11.4v8.9l-3.9-1.6-2.1-4.8h-4.3l3.2 7.9L31 49l-.1-16.7V30zM44.7 19.5l-11.3-4.6V49l11.2-4.4 5.2-12.7-5-12.5zm-3.3 3.3 3 7.4h-7v-9l3.9 1.6zM37.5 43v-8.8h6.8l-3 7.2-3.8 1.6z"/></g></svg>