<svg xmlns="http://www.w3.org/2000/svg" viewBox="0 0 64 64"><g fill-rule="evenodd"><path d="M11.9 23.8c.6.8 5.3 2.2 12.3 3.7 7 1.3 14.3 6.7 20 5 3.8-1.1 8-11 8-12.5v-.2c0-1-.8-1.8-2.1-2.5-5.4-2.7-6.4-3.7-8.4-3.2-10.3 2.8-28.5 1.4-29.9 9.6zM11.9 43.9c.6.8 5.3 2.2 12.3 3.7 7.8 1.4 14.7 6.1 20.4 4.5 3.8-1.1 7.7-10.4 7.7-11.9 0-1.2-.8-2-2.1-2.7-4.1-2.2-9.5-4.6-11.5-4-10.3 2.8-24.1 3.5-26.8 10.4z" fill="#380d09"/><path d="M11.8 28.1z" fill="#555"/><path d="M44.5 3.9C35 6.6 19.9 8.2 11.8 8.2v15.6c5.5 0 22.6-1.8 32.9-4.6 1.8-.5 3.6-1 5.3-1.8 1.3-.6 2.1-1.2 2.1-1.8V0c0 1.5-3.8 2.8-7.7 3.9zM44.5 24c-5.7 1.6-13.3 2.9-20.3 3.6-4.7.5-9.1.7-12.3.7v15.6c5.5 0 22.6-1.8 32.9-4.6 1.8-.5 3.6-1 5.3-1.8 1.3-.6 2.1-1.2 2.1-1.8V20.1c0 1.5-3.8 2.8-7.7 3.9zM44.5 44.1c-5.7 1.6-13.3 2.9-20.3 3.6-4.7.5-9.1.7-12.3.7V64c5.5 0 22.7-1.8 33-4.6 3.8-1.1 7.4-2.2 7.4-3.5V40.3c0 1.5-3.8 2.8-7.7 3.9z" fill="#de3423"/></g></svg>