<svg xmlns="http://www.w3.org/2000/svg" viewBox="0 0 64 64"><path d="M77.876 342.274h.38c0-1.115-.19-1.922-.546-2.445s-.807-.76-1.377-.76-.878.167-1.282.5c-.403.332-.783 1.234-1.092 2.705l-.902 4.107-3.157-7.169h-1.994l4.534 9.78c-.237 1.259-.522 2.208-.878 2.802s-.76.902-1.258.902-.76-.143-1.045-.451-.475-.784-.498-1.425h-.38c0 1.045.237 1.876.617 2.493s.878.95 1.472.95c.38 0 .736-.167 1.092-.475s.64-.855.902-1.615.64-2.35 1.187-4.724l.76-3.37c.308-1.401.616-2.327.949-2.778s.736-.712 1.21-.712c.784 0 1.235.57 1.354 1.685z" fill="#c8c8c8"/></svg>