<svg xmlns="http://www.w3.org/2000/svg" viewBox="0 0 64 64"><path d="M41.6 0h-.3c-2.2.2-3.8 1.1-5 2.8-.4.6-.5.9-.7 1.3-1.6-1-3.5-2-6.3-2C25.1 2 21.2 4 18.7 7.3c-2.4 3.2-3.8 7.4-4.4 12.3v.2c-.8 8.6-.6 12-.3 14.2-.1.2 0 .1-.3.4-2.4 4.1-2.4 9-2.5 13.2v5.6c0 1.8-.1 4.5 1.8 6.8.7.8 1.5 1.4 2.3 2 1.6 1.1 3.8 2.1 6.4 2 1.2 0 2.5-.3 3.7-1.2 1.1-.8 1.7-1.9 2.1-2.7.3-.7.4-1.2.4-1.8 1.8.4 3.8.7 6.2.7 4.2 0 8.5-1.6 12-4.4 3.5-2.8 6.3-7.2 6.3-12.5V42c-.1-3.3-.3-5.6-.6-7.4-.4-1.9-1.1-3.8-2.5-5.2-.7-.7-1.3-1.1-1.8-1.4v-.1c.6-2 .9-4.3 1.1-6.5.2-2.2.4-4.5.5-6.3 0-.9.1-1.7.2-2.3V12c0-.2.1-.6 0 0 .7-2.8 0-5.6-1.2-7.7-1.2-1.9-3.3-3.7-6.2-4-.2 0-.4-.1-.7-.1z" fill="#f8a839"/><path d="M37.6 14.3h.1c.3-.2.4-.4.5-.9.1-.5.1-1.2 0-1.9v-2c0-.3.2-.7.5-1 .3-.3.7-.5 1.2-.5 1.1 0 2.1.1 2.8 1 .6.8.6 2 .3 3.4-.1.5-.2 1.8-.3 3.4 0 1.6-.2 3.5-.3 5.3-.2 1.8-.4 3.6-.8 5-.2.7-.4 1.3-.8 1.8s-.9 1-1.6 1c-.9 0-1.8-.3-2.2-.9-.5-.6-.6-1.3-.6-2-.1-1.4 0-3-.3-4.1-.4-1.4-.8-3.3-1.6-4.8-.4-.8-.8-1.4-1.3-1.8-.5-.4-1-.7-1.8-.6-1.8 0-2.6.4-3.1 1-.6.6-.9 1.6-1.3 2.9-.8 2.7-1.5 5.1-.8 7.5.4 1.3.7 1.9 1.6 2.4.9.5 2.5 1 5.1 1.4 2.8.5 5.8 1.4 8.3 3.2 2.4 1.8 4.3 4.5 4.3 8.2s-1.5 6.4-3.7 8.1c-2.3 1.7-5.2 2.5-8.2 2.6-4.8 0-8.1-1.6-9.8-2.7-.2 1-.3 2.4-.2 3.8 0 .9 0 1.8-.2 2.5-.1.4-.3.8-.6 1.1-.3.3-.8.5-1.3.5-1.4 0-2.4-.7-2.9-1.6-.4-.9-.5-1.7-.5-2.3s0-4.1-.1-7.7V38.1c.1-.8.6-1.3 1.3-1.8.6-.5 1.5-.9 2.5-.9s1.2.4 1.6.9c.3.5.6 1 .8 1.5.4 1.1.5 2.4.7 3.3 0 .5.8 2 2 3.2 1.3 1.2 3.1 2.1 5.5 2.1s4.7-.4 6.1-1.1c1.3-.7 2-1.7 1.8-3.6-.1-1.9-1.1-3.5-2.7-4.8-1.6-1.3-4-2.2-6.9-2.6-3.1-.4-5.8-1.3-7.6-3.4-1.8-2-2.5-5-2-9 .6-4.3 1.7-7.4 3.4-9.6 1.7-2.1 4.1-3.1 6.8-3.1 2.8 0 4.4 2 5.3 3.4.5.7.8 1.3 1 1.6l.1.1zm0 0" fill="#fff" fill-rule="evenodd"/></svg>