<svg xmlns="http://www.w3.org/2000/svg" viewBox="0 0 64 64"><path d="M62.3 27.9c-2.3-2.3-6-2.3-8.3 0H42l8.5-8.5c3.2 0 5.9-2.6 5.9-5.9s-2.6-5.9-5.9-5.9-5.9 2.6-5.9 5.9L36.1 22V10c2.3-2.3 2.3-6 0-8.3s-6-2.3-8.3 0-2.3 6 0 8.3v12l-8.5-8.5c0-3.2-2.6-5.9-5.9-5.9s-5.9 2.6-5.9 5.9 2.6 5.9 5.9 5.9l8.5 8.5H10c-2.3-2.3-6-2.3-8.3 0-2.3 2.3-2.3 6 0 8.3s6 2.3 8.3 0h12l-8.5 8.5c-3.2 0-5.9 2.6-5.9 5.9s2.6 5.9 5.9 5.9 5.9-2.6 5.9-5.9l8.5-8.5v12c-2.3 2.3-2.3 6 0 8.3s6 2.3 8.3 0 2.3-6 0-8.3v-12l8.5 8.5c0 3.2 2.6 5.9 5.9 5.9s5.9-2.6 5.9-5.9-2.6-5.9-5.9-5.9l-8.5-8.5h12c2.3 2.3 6 2.3 8.3 0s2.3-6 0-8.3z" fill="#ffb13b"/></svg>