<svg xmlns="http://www.w3.org/2000/svg" viewBox="0 0 64 64"><path d="m26.2 62.7 26.2.8-1.6-32.3 2.4-29.6-12.1.6L35.5 0 10.8 1.3 12 30.4l-1.2 33.5 15.3-1.3" fill="#f14729"/><path d="m35.2 43.7-2.7.7 1.5-3.6 1.5-10.1-1.9-.4 2.2-3.1 2.8-10.5-4.9 1S36.3 13 39 9.9l-3.6-2.8S23.9 12.2 27 28.7l-2.4-.4 2.3 17.3-1.9.5s2 4 4.8 6c.3.2-3.5-13.5.5-27.2l.4.9s-3.2 14.6 0 26.3c0 0 .1.3 1.7 0 0 0 2.9-5.4 2.9-8.7" fill="#1e5cb3"/><path d="M31.4 23.8s-1.7 7.5-1.2 19.6c.1 3.6.5 7 1 9.9.3 2.5.5 3.5 1.4 6.5v2s-6.6-21.1-1.2-38M35.5 17.3s1.5-.7 3.6-1c0 0 2.3 4.3-3.4 11.5 0 0 3.4-7.6 2.6-10 0 0-.9-.6-2.8-.5M34.8 30.1s1.3.3 2-.2c0 0-1.3 4.9-.9 7.6.3 2.7-2.1 4.4-2.1 4.4s2-2.6 1.4-4.7c-.4-1.5 0-5.2.6-6.3 0 0-.5 0-1-.8M33.4 43.1s2.2-.3 2.4-1.4c0 0 .3 6.6-2.8 9.4 0 0 2.3-3.6 2-7.4l-1.6-.6M27.2 45.8s-.7.8-2.8-1c0 0 .7 4.5 4.9 6.5 0 0-2.9-2.2-3.7-4.5 0 0 1-.3 1.6-1M26.6 44.1s-2.9-7.3-2.3-17.2c0 0 .7 1.8 2.8 2.4 0 0-1 .2-1.6.1 0 0-1.5 4.2 1 14.7M38.7 10.2s-1.1-7.9-7.8 0C25.5 16.6 26.2 22 26.5 25c0 .8-1-8.1 4.9-13.9 5.9-5.8 7.2-1.4 7.3-1" fill="#fff"/><path d="M28.7 3.4s-5.3-1.5-7 16c0 0-1.3-5.4 2.1-13.1 3.4-7.7 4.9-3 4.9-3M22.1 2.1s-2.7 4.1-2.1 8.4c0 0-2-8.1 2.1-8.4M42 13.5s3.2-1.2-1.4 10.7c0 0 2.4-3.5 3.9-8.9 1-3.5-2.5-1.8-2.5-1.8M47.2 12.6s2.3 2 .7 4.8c0 0 4-4.2-.7-4.8" fill="#fff200"/></svg>