<svg xmlns="http://www.w3.org/2000/svg" viewBox="0 0 64 64"><circle cx="32" cy="32" r="32"/><path d="M60.8 32c0 9.9-5.1 19.1-13.5 24.4l-9.9-12.3 8.2.9s3.9.4 4.8 0c.8-.3 5.2-6.5 5.2-6.5s-12.7-8-17-12.4c.5-7.4-.6-17.4-.6-17.3-3.2 3.2-3.6 3.7-6.8 6.6-1.4-4.5-2-6.1-3.4-10.6-4.2 3.4-7.4 9.3-9.7 16-.5.6-1 1.1-1.5 1.8-.3.4-.6.8-.9 1.3-.6.9-1.2 1.8-1.8 2.8l-1.2 2.1C10 33.8 7.9 39.5 6 44.7.9 33.9 2.8 21.1 10.8 12.4 18.9 3.7 31.5.8 42.5 5.2c11 4.3 18.3 15 18.3 26.8z" fill="#d10" fill-rule="evenodd"/><path d="M32.8 21.8s-.5-2.9-.8-3.9c2.2-2.1 2.5-2.5 4.7-4.5.2 4.1 0 6.2-.2 11.2-1.2-1.2-3.7-2.8-3.7-2.8z" fill="#fff" fill-rule="evenodd"/><path d="M19.6 41c1.6-.3 3.2-.4 4.9-.5h1.6l23.6 2.4 2.2-2.8s-.7-2.3-1.3-2.6c-5.5-2.8-13.7-9.5-19.1-14.9-1.2-3.4-3-10.6-4.2-14-4.6 3.4-5.3 10-7.9 14.4-4.9 3.7-7.9 16.1-10.4 26.4v.1c2.7 4.1 15.5 15.9 33.1 9.5l-9.4-15.7h-2.9c-.1 0-.2-.1-.3-.2-5.7-.7-13.2.4-13.2.4.3-2.6 1.3-5 3-7-1.3-.5-2.6-1-3.9-1.3.5-1.8 5.2-3.9 5.9-4.2-.3.4-1.6 1.9-2.1 3 1.7.2 4 1.6 4 1.6s-2.5 2.3-3.6 5.2zm11.9-10.3c2.8-.4 4.8 1.1 6.7 2.5-1.5.4-1.6.5-3.1.9-1.6-.9-2.9-1.4-4.3-1.2.2-.7.4-1.4.7-2.1z" fill="#fff" fill-rule="evenodd"/></svg>