<svg xmlns="http://www.w3.org/2000/svg" viewBox="0 0 64 64"><path d="M23.6 49.5s-2.4 1.4 1.7 1.9c5.1.6 7.7.5 13.3-.6 0 0 1.5.9 3.5 1.7-12.5 5.4-28.4-.3-18.5-3.1M22.1 42.5s-2.7 2 1.4 2.5c5.4.6 9.7.6 17.1-.8 0 0 1 1 2.6 1.6-15.1 4.4-32 .3-21.2-3.2" fill="#5382a1"/><path d="M35 30.6c3.1 3.6-.8 6.8-.8 6.8s7.8-4 4.2-9.1c-3.4-4.7-5.9-7.1 8-15.2 0 0-21.9 5.5-11.4 17.5" fill="#f8981d"/><path d="M51.5 54.7s1.8 1.5-2 2.6c-7.2 2.2-30.1 2.9-36.5 0-2.3-1 2-2.4 3.3-2.7 1.4-.3 2.2-.2 2.2-.2-2.5-1.8-16.4 3.5-7 5 25.5 4.1 46.6-1.9 39.9-4.9M24.8 35.2S13.2 38 20.7 39c3.2.4 9.5.3 15.4-.2 4.8-.4 9.6-1.3 9.6-1.3s-1.7.7-2.9 1.6C31 42.2 8.2 40.8 14.7 37.6c5.6-2.7 10.1-2.4 10.1-2.4M45.6 46.9c12-6.2 6.5-12.2 2.6-11.4-.9.2-1.4.4-1.4.4s.4-.6 1-.8c7.7-2.7 13.6 7.9-2.5 12.2 0 0 .2-.2.2-.3" fill="#5382a1"/><path d="M38.4 0s6.6 6.7-6.3 16.9c-10.4 8.2-2.4 12.9 0 18.2-6.1-5.5-10.5-10.3-7.5-14.8 4.3-6.5 16.5-9.7 13.8-20.3" fill="#f8981d"/><path d="M26 63.8c11.5.7 29.2-.4 29.6-5.9 0 0-.8 2.1-9.5 3.7-9.8 1.9-22 1.6-29.2.4 0 0 1.5 1.2 9 1.7" fill="#5382a1"/></svg>