<svg xmlns="http://www.w3.org/2000/svg" xmlns:xlink="http://www.w3.org/1999/xlink" viewBox="0 0 64 64"><defs><linearGradient id="a" x1="-680.9" y1="-325.4" x2="-635.8" y2="-370.5" gradientTransform="matrix(1 0 0 -1 689 -314.9)" gradientUnits="userSpaceOnUse"><stop offset="0"/><stop offset="1" stop-color="#fff"/></linearGradient><linearGradient id="b" x1="-633.8" y1="-368.5" x2="-678.9" y2="-323.3" xlink:href="#a"/></defs><path d="M31.9 47.6c14.2 19.3 28-5.4 28-20.2C59.9 9.9 42.1 0 31.9 0 15.6 0 0 13.6 0 32.1S17.9 64 31.9 64c-3.2-.5-13.8-2.7-13.9-27.2 0-16.5 5.4-23.1 13.9-20.2.2 0 9.4 3.7 9.4 15.6s-9.4 15.5-9.4 15.5z" fill="url(#a)" fill-rule="evenodd"/><path d="M31.9 16.6c-9.4-3.2-20.8 4.5-20.8 19.9 0 25.2 18.7 27.5 21 27.5C48.5 64 64 50.5 64 32S46.1 0 32.1 0c3.9-.5 21 4.2 21 27.6S40.3 51.2 32 47.6c-.2 0-9.4-3.7-9.4-15.6s9.3-15.5 9.3-15.5z" fill="url(#b)" fill-rule="evenodd"/></svg>