<svg xmlns="http://www.w3.org/2000/svg" viewBox="0 0 64 64"><path d="M23.3 32.3c.6-3 .1-5.3-1.4-7-1.5-1.7-3.8-2.5-6.9-2.5H5.1c-.2 0-.4.2-.5.4L0 47c0 .1 0 .3.1.4 0 .1.2.2.4.2h5.2c.2 0 .4-.2.5-.4l1.2-5.9h4c2 0 3.7-.2 5-.6 1.3-.4 2.5-1.2 3.6-2.2.9-.8 1.6-1.8 2.2-2.8.6-1 1-2.1 1.2-3.3zm-6.3-.5c-.3 1.7-1 2.9-1.9 3.6-.9.7-2.4 1.1-4.4 1.1H8.1l1.7-9h3.1c1.8 0 3 .3 3.6.9.5.6.7 1.7.4 3.3zM40.9 40.8 43 29.7c.5-2.4 0-4.2-1.1-5.3-1.2-1.1-3.3-1.6-6.3-1.6h-4l1.1-5.7c0-.1 0-.3-.1-.4 0-.1-.2-.2-.4-.2h-5.1c-.2 0-.4.2-.5.4L22 40.7c0 .1 0 .3.1.4 0 .1.2.2.4.2h5.1c.2 0 .4-.2.5-.4l2.6-13.2h3.7c1.5 0 2 .3 2.2.5.3.3.3 1 .1 2l-2 10.5c0 .1 0 .3.1.4 0 .1.2.2.4.2h5.2c.2 0 .4-.2.5-.4zM62.4 25.3c-1.5-1.7-3.8-2.5-6.9-2.5h-10c-.2 0-.4.2-.5.4L40.4 47c0 .1 0 .3.1.4 0 .1.2.2.4.2h5.2c.2 0 .4-.2.5-.4l1.2-5.9h4c2 0 3.7-.2 5-.6 1.3-.4 2.5-1.2 3.6-2.2.9-.8 1.6-1.8 2.2-2.8.6-1 1-2.1 1.2-3.3.6-3 .1-5.3-1.4-7zm-5 6.5c-.3 1.7-1 2.9-1.9 3.6-.9.7-2.4 1.1-4.4 1.1h-2.6l1.7-9h3.1c1.8 0 3 .3 3.6.9.5.6.7 1.7.4 3.3z" fill="#777bb3"/></svg>