<svg xmlns="http://www.w3.org/2000/svg" viewBox="0 0 64 64"><defs><linearGradient id="a" x1="-4.6" y1="52.5" x2="45.8" y2="1.9" gradientUnits="userSpaceOnUse"><stop offset="0" stop-color="#387eb8"/><stop offset="1" stop-color="#366994"/></linearGradient><linearGradient id="b" x1="17.2" y1="62.4" x2="71.3" y2="10.5" gradientUnits="userSpaceOnUse"><stop offset="0" stop-color="#ffe052"/><stop offset="1" stop-color="#ffc331"/></linearGradient></defs><path d="M31.8.2c-16.3 0-15.3 7-15.3 7v7.3H32v2.2H10.4S0 15.5 0 31.9s9.1 15.8 9.1 15.8h5.4v-7.6s-.3-9.1 8.9-9.1h15.4s8.6.1 8.6-8.3v-14S48.7.2 31.8.2zm-8.5 10.5c-1.5 0-2.8-1.2-2.8-2.8s1.2-2.8 2.8-2.8 2.8 1.2 2.8 2.8-1.2 2.8-2.8 2.8z" fill="url(#a)"/><path d="M54.9 16.3h-5.4v7.6s.3 9.1-8.9 9.1H25.2s-8.6-.1-8.6 8.3v14s-1.3 8.5 15.7 8.5 15.2-7 15.2-7v-7.3H32v-2.2h21.7s10.4 1.2 10.4-15.2S55 16.3 55 16.3zM40.8 53.4c1.5 0 2.8 1.2 2.8 2.8 0 1.5-1.2 2.8-2.8 2.8S38 57.8 38 56.2s1.2-2.8 2.8-2.8z" fill="url(#b)"/></svg>