<svg xmlns="http://www.w3.org/2000/svg" viewBox="0 0 64 64"><path d="M36.3 41.8v9.1c1.5.8 3.3 1.3 5.3 1.7s4.2.6 6.4.6 4.2-.2 6.2-.6 3.6-1.1 5.1-2c1.5-1 2.7-2.2 3.5-3.8s1.3-3.5 1.3-5.8-.3-3.1-.7-4.4-1.2-2.4-2.2-3.3c-.9-1-2-1.8-3.3-2.6s-2.7-1.5-4.4-2.2c-1.2-.5-2.2-1-3.3-1.4-.9-.5-1.8-.9-2.4-1.4-.7-.5-1.2-1-1.5-1.5-.4-.5-.5-1.1-.5-1.8s.2-1.2.5-1.7.8-.9 1.4-1.3 1.3-.6 2.2-.8c.9-.2 1.8-.3 2.9-.3s1.6 0 2.4.2c.8.1 1.7.3 2.6.5s1.7.5 2.6.9c.8.4 1.5.8 2.2 1.3v-8.8c-1.4-.5-2.9-.9-4.6-1.2s-3.5-.4-5.7-.4-4.2.2-6.2.7-3.6 1.2-5.1 2.2c-1.5 1-2.6 2.2-3.5 3.8-.9 1.5-1.3 3.3-1.3 5.5s.8 5.1 2.4 6.9c1.6 2 4 3.5 7.1 4.9 1.3.5 2.4 1 3.5 1.5s2 1 2.7 1.5c.8.5 1.4 1.1 1.8 1.7.5.6.7 1.3.7 2.2s-.1 1.1-.4 1.6-.7.9-1.3 1.3-1.3.7-2.2.9c-.9.2-1.8.3-3.1.3-2 0-4-.3-5.8-1-2-.7-3.8-1.7-5.5-3.1h.3zM21 19.3h11.6v-7.4H0v7.4h11.7v33.4H21V19.3z" fill="#3178c6" fill-rule="evenodd"/></svg>